# Blender 4.5.5 LTS
# www.blender.org
mtllib Spider.mtl
o Cube.003
v -1.571263 0.734294 2.052718
v -1.678185 0.518133 1.901182
v -1.555533 1.390240 1.787559
v -1.507823 1.200813 1.989698
v -1.867119 0.491868 1.464250
v -1.920704 0.682090 1.258468
v -1.849359 1.150565 1.192014
v -1.741728 1.358092 1.337466
v -0.760923 -0.278007 1.028839
v -0.878262 -0.487110 0.880948
v -0.690427 0.351038 0.747096
v -0.661059 0.169760 0.954486
v -1.059807 -0.522979 0.439976
v -1.092770 -0.345832 0.227461
v -0.993525 0.109844 0.152784
v -0.878298 0.315881 0.296664
v -2.533155 1.246959 1.998762
v -2.591589 1.439681 1.794124
v -2.260417 1.501969 2.594024
v -2.351766 1.279036 2.437906
v -2.269902 2.164885 2.335286
v -2.218978 1.975214 2.536772
v -2.546197 1.918484 1.734832
v -2.452905 2.129957 1.883634
v -3.260460 1.201106 2.152272
v -3.434916 1.372497 2.055456
v -3.110430 1.437664 2.859092
v -3.081170 1.234502 2.591846
v -3.543834 2.114972 3.000887
v -3.370094 1.927088 3.083447
v -3.694896 1.868133 2.282425
v -3.724980 2.078809 2.547997
v -3.737294 -0.244610 2.725070
v -3.524571 -0.342491 2.765966
v -3.458262 -0.348204 2.871093
v -3.455398 -0.274267 3.154428
v -3.607909 -0.150713 3.328152
v -3.814318 -0.055388 3.290691
v -3.884307 -0.050051 3.174914
v -3.872009 -0.133402 2.883288
v -3.644681 -1.584619 2.893763
v -3.767678 -1.562075 2.862439
v -3.855398 -1.527143 2.946819
v -3.875588 -1.493605 3.110905
v -3.839478 -1.489861 3.178928
v -3.721283 -1.511624 3.208341
v -3.625382 -1.549676 3.116503
v -3.611380 -1.581244 2.955830
v -2.259776 0.700195 0.265649
v -2.229743 0.517304 0.111634
v -2.088535 1.255183 0.120095
v -2.184142 1.094912 0.267538
v -2.073298 0.495082 -0.259505
v -1.978903 0.656026 -0.412670
v -1.896544 1.052398 -0.407959
v -1.922445 1.227983 -0.257071
v -1.159900 -0.493573 0.161687
v -1.138189 -0.670493 0.003440
v -0.946477 0.038654 0.039897
v -1.056025 -0.114723 0.179203
v -0.974953 -0.700841 -0.365548
v -0.864376 -0.550960 -0.510050
v -0.760665 -0.165417 -0.493102
v -0.781160 0.008909 -0.338493
v -2.789683 1.133956 -0.353728
v -2.698825 1.297015 -0.509187
v -2.993841 1.349716 0.161274
v -2.951894 1.161095 0.014094
v -2.841279 1.910602 0.004070
v -2.934606 1.750124 0.153095
v -2.636030 1.702125 -0.516144
v -2.672369 1.881049 -0.372059
v -3.309095 1.095159 -0.708347
v -3.352020 1.240172 -0.871610
v -3.653231 1.295308 -0.203049
v -3.472797 1.123415 -0.341555
v -3.993500 1.868371 -0.384923
v -3.942282 1.709405 -0.230440
v -3.642853 1.659523 -0.897664
v -3.822746 1.837775 -0.760641
v -3.938159 -0.128044 -0.664546
v -3.838670 -0.210860 -0.510622
v -3.864109 -0.215694 -0.408584
v -4.035576 -0.153136 -0.241032
v -4.230984 -0.048599 -0.232570
v -4.328878 0.032054 -0.380626
v -4.299083 0.036570 -0.491145
v -4.113677 -0.033952 -0.654283
v -3.987051 -1.261810 -0.509236
v -4.039885 -1.242736 -0.602728
v -4.142780 -1.213180 -0.606956
v -4.254866 -1.184805 -0.523274
v -4.275303 -1.181636 -0.461402
v -4.224112 -1.200050 -0.371962
v -4.111872 -1.232246 -0.367100
v -4.005492 -1.258955 -0.452565
v 1.062398 0.835104 -1.062398
v 1.062398 -0.835104 -1.062398
v 1.062398 0.835104 1.062398
v 1.062398 -0.835104 1.062398
v -1.062398 0.835104 -1.062398
v -1.062398 -0.835104 -1.062398
v -1.062398 0.835104 1.062398
v -1.062398 -0.835104 1.062398
v -1.295208 -1.018106 0.000000
v -0.000000 -1.018105 -1.295207
v 1.295207 0.000000 -1.295207
v -1.295207 0.000000 1.295207
v 1.295207 0.000000 1.295207
v -1.295207 0.000000 -1.295208
v -0.000000 1.018106 1.295208
v 1.295207 1.018106 0.000000
v -0.000000 -1.018105 1.295208
v -1.295207 1.018106 0.000000
v -0.000000 1.018106 -1.295207
v 1.295207 -1.018106 0.000000
v -0.000000 1.402150 0.000000
v 0.000000 0.000000 1.783779
v -1.783779 0.000000 0.000000
v 0.000000 -1.402150 0.000000
v 1.783779 0.000000 0.000000
v -0.000000 0.000000 -1.783779
v 0.797957 0.627239 1.378077
v 0.797956 -0.627239 1.378077
v 0.797957 0.627239 2.973990
v 0.797957 -0.627239 2.973990
v -0.797957 0.627239 1.378077
v -0.797957 -0.627239 1.378077
v -0.797957 0.627239 2.973990
v -0.797957 -0.627239 2.973990
v -0.972818 -0.764689 2.176033
v -0.000000 -0.764689 1.203216
v 0.972818 0.000000 1.203216
v -0.972818 0.000000 3.148851
v 0.972817 0.000000 3.148851
v -0.972817 0.000000 1.203216
v 0.000000 0.764689 3.148851
v 0.972817 0.764689 2.176033
v -0.000000 -0.764689 3.148851
v -0.972817 0.764689 2.176033
v 0.000000 0.764689 1.203216
v 0.972818 -0.764689 2.176033
v 0.000000 1.053142 2.176033
v -0.000000 0.000000 3.515812
v -1.339779 0.000000 2.176033
v -0.000000 -1.053141 2.176033
v 1.339779 0.000000 2.176033
v -0.000000 0.000000 0.836254
v -0.562926 -0.652408 4.433558
v -0.490466 -0.408600 4.512402
v -0.922551 -0.131942 2.913034
v -0.922551 0.111867 3.020118
v -0.366863 -0.652408 4.253367
v -0.294403 -0.408600 4.332211
v -0.656263 -0.131942 2.913034
v -0.656263 0.111867 3.020118
v -0.959840 -0.450810 3.706260
v -0.949555 -0.207002 3.812849
v -0.737119 -0.450810 3.698224
v -0.720352 -0.207002 3.803987
v -0.330530 -0.960862 4.207472
v -0.273033 -0.767400 4.270034
v -0.615892 -0.547872 3.000936
v -0.615892 -0.354410 3.085907
v -0.174954 -0.960862 4.064491
v -0.117456 -0.767400 4.127053
v -0.404593 -0.547872 3.000936
v -0.404593 -0.354410 3.085907
v -0.645481 -0.800894 3.630361
v -0.637320 -0.607432 3.714939
v -0.468752 -0.800894 3.623984
v -0.455447 -0.607432 3.707907
v 1.267560 1.841893 -3.058066
v 1.267560 -0.073579 -3.576318
v 1.267560 1.182587 -0.621254
v 1.267560 -0.732884 -1.139505
v -1.256868 1.841893 -3.058066
v -1.256868 -0.073579 -3.576318
v -1.256868 1.182587 -0.621254
v -1.256868 -0.732884 -1.139505
v -1.533465 -0.613105 -2.414695
v 0.005346 -0.211214 -3.900097
v 1.544156 0.956396 -3.584189
v -1.533465 0.152613 -0.613383
v 1.544156 0.152613 -0.613383
v -1.533465 0.956396 -3.584188
v 0.005346 1.320222 -0.297474
v 1.544156 1.722114 -1.782876
v 0.005346 -1.014997 -0.929292
v -1.533465 1.722114 -1.782876
v 0.005346 2.124005 -3.268279
v 1.544156 -0.613105 -2.414695
v 0.005346 2.162554 -1.663710
v 0.005346 0.001013 -0.053066
v -2.113928 0.554504 -2.098786
v 0.005346 -1.053545 -2.533861
v 2.124619 0.554504 -2.098786
v 0.005346 1.107996 -4.144505
v -0.488984 0.651434 2.957424
v -0.425350 0.591302 2.893790
v -0.382830 0.501309 2.851270
v -0.367899 0.395155 2.836340
v -0.382830 0.289001 2.851270
v -0.425350 0.199008 2.893790
v -0.488984 0.138877 2.957424
v -0.457892 0.651434 3.032486
v -0.367899 0.591302 3.032487
v -0.307768 0.501309 3.032486
v -0.286653 0.395155 3.032486
v -0.307768 0.289001 3.032486
v -0.367899 0.199008 3.032486
v -0.457892 0.138877 3.032486
v -0.488984 0.651434 3.107549
v -0.425350 0.591302 3.171183
v -0.382830 0.501309 3.213702
v -0.367899 0.395155 3.228633
v -0.382830 0.289001 3.213703
v -0.425350 0.199008 3.171183
v -0.488984 0.138877 3.107549
v -0.564046 0.651434 3.138640
v -0.564046 0.591302 3.228633
v -0.564046 0.501309 3.288764
v -0.564046 0.395155 3.309880
v -0.564046 0.289001 3.288765
v -0.564046 0.199008 3.228634
v -0.564046 0.138877 3.138640
v -0.639109 0.651434 3.107549
v -0.702743 0.591302 3.171183
v -0.745263 0.501309 3.213703
v -0.760193 0.395155 3.228633
v -0.745263 0.289001 3.213702
v -0.702743 0.199008 3.171183
v -0.639109 0.138877 3.107548
v -0.670200 0.651434 3.032486
v -0.760193 0.591302 3.032487
v -0.820325 0.501309 3.032486
v -0.841440 0.395155 3.032486
v -0.820325 0.289001 3.032487
v -0.760193 0.199008 3.032486
v -0.670200 0.138877 3.032486
v -0.639109 0.651434 2.957424
v -0.702743 0.591302 2.893790
v -0.745263 0.501309 2.851270
v -0.760193 0.395155 2.836339
v -0.745263 0.289001 2.851270
v -0.702743 0.199008 2.893790
v -0.639109 0.138877 2.957424
v -0.564046 0.117762 3.032486
v -0.564046 0.672549 3.032486
v -0.564046 0.651434 2.926333
v -0.564046 0.591302 2.836340
v -0.564046 0.501309 2.776208
v -0.564046 0.395155 2.755093
v -0.564046 0.289001 2.776208
v -0.564046 0.199008 2.836339
v -0.564046 0.138877 2.926332
v -0.099762 0.577491 3.152726
v -0.053392 0.533673 3.106356
v -0.022408 0.468095 3.075372
v -0.011528 0.390741 3.064492
v -0.022408 0.313387 3.075372
v -0.053392 0.247809 3.106356
v -0.099762 0.203991 3.152726
v -0.077106 0.577491 3.207424
v -0.011528 0.533673 3.207424
v 0.032290 0.468095 3.207424
v 0.047677 0.390741 3.207424
v 0.032290 0.313387 3.207424
v -0.011528 0.247809 3.207424
v -0.077106 0.203991 3.207424
v -0.099762 0.577491 3.262122
v -0.053392 0.533673 3.308492
v -0.022408 0.468095 3.339476
v -0.011528 0.390741 3.350356
v -0.022408 0.313387 3.339476
v -0.053391 0.247809 3.308493
v -0.099762 0.203991 3.262122
v -0.154460 0.577491 3.284779
v -0.154460 0.533673 3.350357
v -0.154460 0.468095 3.394174
v -0.154460 0.390741 3.409561
v -0.154460 0.313387 3.394174
v -0.154460 0.247809 3.350356
v -0.154460 0.203991 3.284779
v -0.209158 0.577491 3.262122
v -0.255528 0.533673 3.308492
v -0.286512 0.468095 3.339476
v -0.297392 0.390741 3.350356
v -0.286512 0.313387 3.339476
v -0.255528 0.247809 3.308492
v -0.209158 0.203991 3.262122
v -0.231814 0.577491 3.207424
v -0.297392 0.533673 3.207424
v -0.341210 0.468095 3.207424
v -0.356597 0.390741 3.207424
v -0.341210 0.313387 3.207424
v -0.297392 0.247809 3.207424
v -0.231814 0.203991 3.207424
v -0.209158 0.577491 3.152726
v -0.255528 0.533673 3.106356
v -0.286512 0.468095 3.075372
v -0.297392 0.390741 3.064492
v -0.286512 0.313387 3.075372
v -0.255528 0.247809 3.106356
v -0.209158 0.203991 3.152726
v -0.154460 0.188604 3.207424
v -0.154460 0.592878 3.207424
v -0.154460 0.577491 3.130070
v -0.154460 0.533673 3.064492
v -0.154460 0.468095 3.020674
v -0.154460 0.390741 3.005288
v -0.154460 0.313387 3.020674
v -0.154460 0.247809 3.064492
v -0.154460 0.203991 3.130070
v -0.126882 0.237271 3.319039
v -0.103477 0.215153 3.295633
v -0.087837 0.182053 3.279994
v -0.082346 0.143008 3.274502
v -0.087837 0.103963 3.279994
v -0.103477 0.070862 3.295633
v -0.126882 0.048745 3.319039
v -0.115446 0.237271 3.346648
v -0.082346 0.215153 3.346648
v -0.060229 0.182053 3.346648
v -0.052462 0.143008 3.346648
v -0.060229 0.103963 3.346648
v -0.082346 0.070862 3.346648
v -0.115446 0.048745 3.346648
v -0.126882 0.237271 3.374257
v -0.103477 0.215153 3.397662
v -0.087837 0.182053 3.413302
v -0.082346 0.143008 3.418793
v -0.087838 0.103963 3.413301
v -0.103477 0.070862 3.397662
v -0.126882 0.048745 3.374257
v -0.154491 0.237271 3.385693
v -0.154491 0.215153 3.418793
v -0.154491 0.182053 3.440910
v -0.154491 0.143008 3.448677
v -0.154491 0.103963 3.440911
v -0.154491 0.070862 3.418793
v -0.154491 0.048745 3.385693
v -0.182100 0.237271 3.374257
v -0.205506 0.215153 3.397662
v -0.221145 0.182053 3.413301
v -0.226637 0.143008 3.418793
v -0.221145 0.103963 3.413302
v -0.205506 0.070862 3.397662
v -0.182100 0.048745 3.374257
v -0.193536 0.237271 3.346648
v -0.226637 0.215153 3.346648
v -0.248754 0.182053 3.346648
v -0.256520 0.143008 3.346648
v -0.248754 0.103963 3.346648
v -0.226637 0.070862 3.346648
v -0.193536 0.048745 3.346648
v -0.182100 0.237271 3.319039
v -0.205506 0.215153 3.295633
v -0.221145 0.182053 3.279994
v -0.226637 0.143008 3.274502
v -0.221145 0.103963 3.279994
v -0.205506 0.070862 3.295633
v -0.182100 0.048745 3.319039
v -0.154491 0.040979 3.346648
v -0.154491 0.245037 3.346648
v -0.154491 0.237271 3.307603
v -0.154491 0.215153 3.274502
v -0.154491 0.182053 3.252385
v -0.154491 0.143008 3.244619
v -0.154491 0.103963 3.252385
v -0.154491 0.070862 3.274502
v -0.154491 0.048745 3.307603
v -0.279084 0.272936 3.255890
v -0.255678 0.250818 3.232484
v -0.240039 0.217718 3.216845
v -0.234547 0.178673 3.211353
v -0.240039 0.139628 3.216845
v -0.255678 0.106527 3.232484
v -0.279084 0.084410 3.255890
v -0.267648 0.272936 3.283499
v -0.234547 0.250818 3.283499
v -0.212430 0.217718 3.283499
v -0.204664 0.178673 3.283499
v -0.212430 0.139628 3.283499
v -0.234547 0.106527 3.283499
v -0.267648 0.084410 3.283499
v -0.279084 0.272936 3.311107
v -0.255678 0.250818 3.334513
v -0.240039 0.217718 3.350152
v -0.234547 0.178673 3.355644
v -0.240039 0.139628 3.350152
v -0.255678 0.106527 3.334513
v -0.279084 0.084410 3.311107
v -0.306693 0.272936 3.322544
v -0.306693 0.250818 3.355644
v -0.306693 0.217718 3.377761
v -0.306693 0.178673 3.385528
v -0.306693 0.139628 3.377761
v -0.306693 0.106527 3.355644
v -0.306693 0.084410 3.322543
v -0.334302 0.272936 3.311107
v -0.357708 0.250818 3.334513
v -0.373347 0.217718 3.350152
v -0.378838 0.178673 3.355644
v -0.373347 0.139628 3.350152
v -0.357708 0.106527 3.334513
v -0.334302 0.084410 3.311107
v -0.345738 0.272936 3.283499
v -0.378838 0.250818 3.283499
v -0.400955 0.217718 3.283499
v -0.408722 0.178673 3.283499
v -0.400955 0.139628 3.283499
v -0.378838 0.106527 3.283499
v -0.345738 0.084410 3.283499
v -0.334302 0.272936 3.255890
v -0.357707 0.250818 3.232484
v -0.373347 0.217718 3.216845
v -0.378838 0.178673 3.211353
v -0.373347 0.139628 3.216845
v -0.357708 0.106527 3.232484
v -0.334302 0.084410 3.255890
v -0.306693 0.076644 3.283499
v -0.306693 0.280702 3.283499
v -0.306693 0.272936 3.244454
v -0.306693 0.250818 3.211353
v -0.306693 0.217718 3.189236
v -0.306693 0.178673 3.181469
v -0.306693 0.139628 3.189236
v -0.306693 0.106527 3.211353
v -0.306693 0.084410 3.244454
v 1.571262 0.734294 2.052718
v 1.678184 0.518133 1.901182
v 1.555533 1.390240 1.787559
v 1.507823 1.200813 1.989698
v 1.867119 0.491868 1.464250
v 1.920704 0.682090 1.258468
v 1.849359 1.150565 1.192014
v 1.741728 1.358092 1.337466
v 0.760923 -0.278007 1.028839
v 0.878262 -0.487110 0.880948
v 0.690427 0.351038 0.747096
v 0.661059 0.169760 0.954486
v 1.059807 -0.522979 0.439976
v 1.092770 -0.345832 0.227462
v 0.993525 0.109844 0.152784
v 0.878298 0.315881 0.296664
v 2.533155 1.246960 1.998762
v 2.591589 1.439681 1.794125
v 2.260417 1.501969 2.594025
v 2.351766 1.279036 2.437906
v 2.269902 2.164885 2.335286
v 2.218977 1.975214 2.536772
v 2.546196 1.918484 1.734833
v 2.452905 2.129957 1.883634
v 3.260460 1.201106 2.152272
v 3.434916 1.372497 2.055456
v 3.110430 1.437664 2.859092
v 3.081170 1.234502 2.591847
v 3.543835 2.114972 3.000887
v 3.370094 1.927089 3.083447
v 3.694896 1.868133 2.282426
v 3.724980 2.078810 2.547998
v 3.737294 -0.244610 2.725071
v 3.524572 -0.342491 2.765966
v 3.458262 -0.348204 2.871093
v 3.455399 -0.274267 3.154428
v 3.607909 -0.150713 3.328152
v 3.814318 -0.055388 3.290691
v 3.884306 -0.050051 3.174914
v 3.872009 -0.133402 2.883289
v 3.644681 -1.584619 2.893763
v 3.767677 -1.562075 2.862440
v 3.855398 -1.527143 2.946819
v 3.875588 -1.493605 3.110906
v 3.839478 -1.489860 3.178928
v 3.721282 -1.511624 3.208341
v 3.625382 -1.549676 3.116503
v 3.611380 -1.581244 2.955831
v 2.259776 0.700195 0.265649
v 2.229743 0.517304 0.111634
v 2.088535 1.255183 0.120096
v 2.184142 1.094912 0.267538
v 2.073298 0.495082 -0.259505
v 1.978903 0.656026 -0.412670
v 1.896545 1.052398 -0.407959
v 1.922445 1.227984 -0.257071
v 1.159900 -0.493573 0.161687
v 1.138189 -0.670493 0.003440
v 0.946477 0.038654 0.039897
v 1.056025 -0.114723 0.179204
v 0.974952 -0.700841 -0.365548
v 0.864376 -0.550959 -0.510050
v 0.760665 -0.165417 -0.493101
v 0.781160 0.008909 -0.338493
v 2.789682 1.133956 -0.353728
v 2.698825 1.297015 -0.509186
v 2.993842 1.349716 0.161274
v 2.951895 1.161095 0.014094
v 2.841279 1.910602 0.004070
v 2.934606 1.750124 0.153095
v 2.636030 1.702125 -0.516144
v 2.672369 1.881049 -0.372059
v 3.309095 1.095160 -0.708347
v 3.352021 1.240172 -0.871610
v 3.653231 1.295309 -0.203049
v 3.472798 1.123415 -0.341554
v 3.993500 1.868371 -0.384923
v 3.942282 1.709405 -0.230440
v 3.642853 1.659523 -0.897664
v 3.822746 1.837775 -0.760641
v 3.938160 -0.128044 -0.664546
v 3.838670 -0.210860 -0.510622
v 3.864109 -0.215694 -0.408584
v 4.035577 -0.153136 -0.241032
v 4.230984 -0.048599 -0.232569
v 4.328878 0.032054 -0.380626
v 4.299084 0.036570 -0.491145
v 4.113678 -0.033952 -0.654283
v 3.987051 -1.261810 -0.509236
v 4.039885 -1.242736 -0.602728
v 4.142780 -1.213180 -0.606956
v 4.254867 -1.184805 -0.523274
v 4.275304 -1.181636 -0.461402
v 4.224113 -1.200050 -0.371962
v 4.111872 -1.232246 -0.367100
v 4.005492 -1.258955 -0.452565
v -1.062398 0.835104 -1.062398
v -1.062398 -0.835104 -1.062398
v -1.062398 0.835105 1.062398
v -1.062398 -0.835104 1.062398
v 1.062398 0.835104 -1.062398
v 1.062398 -0.835104 -1.062397
v 1.062398 0.835105 1.062398
v 1.062398 -0.835104 1.062398
v 1.295207 -1.018105 0.000000
v -1.295208 0.000000 -1.295208
v 1.295207 0.000000 1.295208
v -1.295207 0.000000 1.295208
v 1.295207 0.000000 -1.295207
v -1.295208 1.018106 0.000000
v 1.295207 1.018106 0.000000
v -1.295207 -1.018105 0.000000
v 1.783779 0.000000 0.000000
v -1.783779 0.000000 0.000000
v -0.797957 0.627239 1.378077
v -0.797956 -0.627238 1.378077
v -0.797957 0.627239 2.973990
v -0.797957 -0.627238 2.973990
v 0.797957 0.627239 1.378077
v 0.797956 -0.627238 1.378077
v 0.797957 0.627239 2.973990
v 0.797957 -0.627238 2.973990
v 0.972817 -0.764689 2.176034
v -0.972818 0.000000 1.203216
v 0.972817 0.000000 3.148851
v -0.972818 0.000000 3.148851
v 0.972817 0.000000 1.203216
v -0.972818 0.764689 2.176033
v 0.972817 0.764689 2.176033
v -0.972818 -0.764689 2.176033
v 1.339779 0.000000 2.176033
v -1.339779 0.000000 2.176033
v 0.562926 -0.652408 4.433558
v 0.490466 -0.408600 4.512402
v 0.922551 -0.131941 2.913034
v 0.922551 0.111867 3.020118
v 0.366863 -0.652408 4.253368
v 0.294403 -0.408600 4.332211
v 0.656263 -0.131941 2.913034
v 0.656263 0.111867 3.020118
v 0.959840 -0.450810 3.706260
v 0.949555 -0.207002 3.812849
v 0.737119 -0.450810 3.698225
v 0.720352 -0.207002 3.803987
v 0.330530 -0.960862 4.207472
v 0.273032 -0.767400 4.270034
v 0.615892 -0.547872 3.000936
v 0.615892 -0.354410 3.085907
v 0.174954 -0.960862 4.064490
v 0.117456 -0.767400 4.127053
v 0.404593 -0.547872 3.000936
v 0.404593 -0.354410 3.085907
v 0.645481 -0.800894 3.630361
v 0.637320 -0.607432 3.714939
v 0.468752 -0.800894 3.623985
v 0.455447 -0.607432 3.707907
v -1.267560 1.841893 -3.058066
v -1.267560 -0.073578 -3.576318
v -1.267560 1.182587 -0.621254
v -1.267560 -0.732884 -1.139505
v 1.256868 1.841893 -3.058066
v 1.256868 -0.073579 -3.576318
v 1.256868 1.182587 -0.621253
v 1.256868 -0.732884 -1.139505
v 1.533465 -0.613105 -2.414695
v -0.005346 -0.211214 -3.900097
v -1.544156 0.956396 -3.584188
v 1.533465 0.152613 -0.613383
v -1.544156 0.152613 -0.613383
v 1.533465 0.956396 -3.584188
v -0.005346 1.320222 -0.297473
v -1.544157 1.722114 -1.782876
v -0.005346 -1.014997 -0.929292
v 1.533465 1.722114 -1.782876
v -0.005346 2.124005 -3.268278
v -1.544156 -0.613105 -2.414695
v -0.005346 2.162554 -1.663711
v -0.005346 0.001013 -0.053066
v 2.113927 0.554504 -2.098785
v -0.005346 -1.053545 -2.533860
v -2.124619 0.554504 -2.098786
v -0.005346 1.107996 -4.144505
v 0.488984 0.651434 2.957424
v 0.425349 0.591303 2.893790
v 0.382830 0.501310 2.851270
v 0.367899 0.395156 2.836340
v 0.382830 0.289002 2.851270
v 0.425349 0.199009 2.893790
v 0.488984 0.138877 2.957424
v 0.457892 0.651434 3.032487
v 0.367899 0.591303 3.032487
v 0.307768 0.501310 3.032486
v 0.286653 0.395156 3.032487
v 0.307768 0.289002 3.032487
v 0.367899 0.199009 3.032486
v 0.457892 0.138877 3.032486
v 0.488984 0.651434 3.107549
v 0.425349 0.591303 3.171184
v 0.382830 0.501310 3.213702
v 0.367899 0.395156 3.228634
v 0.382830 0.289002 3.213703
v 0.425349 0.199009 3.171183
v 0.488984 0.138877 3.107549
v 0.564046 0.651434 3.138641
v 0.564046 0.591303 3.228633
v 0.564046 0.501310 3.288765
v 0.564046 0.395156 3.309880
v 0.564046 0.289002 3.288765
v 0.564046 0.199009 3.228634
v 0.564046 0.138877 3.138641
v 0.639109 0.651434 3.107549
v 0.702743 0.591303 3.171184
v 0.745262 0.501310 3.213703
v 0.760193 0.395156 3.228633
v 0.745262 0.289002 3.213703
v 0.702743 0.199009 3.171183
v 0.639109 0.138877 3.107549
v 0.670200 0.651434 3.032486
v 0.760193 0.591303 3.032487
v 0.820325 0.501310 3.032487
v 0.841440 0.395156 3.032487
v 0.820325 0.289002 3.032487
v 0.760193 0.199009 3.032486
v 0.670200 0.138877 3.032487
v 0.639108 0.651434 2.957424
v 0.702743 0.591303 2.893790
v 0.745262 0.501310 2.851270
v 0.760193 0.395156 2.836340
v 0.745263 0.289002 2.851270
v 0.702743 0.199009 2.893790
v 0.639108 0.138877 2.957424
v 0.564046 0.117762 3.032486
v 0.564046 0.672549 3.032486
v 0.564046 0.651434 2.926333
v 0.564046 0.591303 2.836340
v 0.564046 0.501310 2.776208
v 0.564046 0.395156 2.755093
v 0.564046 0.289002 2.776208
v 0.564046 0.199009 2.836340
v 0.564046 0.138877 2.926332
v 0.099762 0.577491 3.152727
v 0.053391 0.533673 3.106356
v 0.022408 0.468095 3.075372
v 0.011528 0.390741 3.064492
v 0.022407 0.313387 3.075372
v 0.053391 0.247809 3.106356
v 0.099762 0.203991 3.152726
v 0.077106 0.577491 3.207424
v 0.011528 0.533673 3.207424
v -0.032290 0.468095 3.207425
v -0.047677 0.390741 3.207424
v -0.032290 0.313387 3.207424
v 0.011527 0.247809 3.207424
v 0.077105 0.203991 3.207424
v 0.099762 0.577491 3.262122
v 0.053391 0.533673 3.308493
v 0.022408 0.468095 3.339476
v 0.011527 0.390741 3.350356
v 0.022408 0.313387 3.339477
v 0.053391 0.247809 3.308493
v 0.099762 0.203991 3.262122
v 0.154460 0.577491 3.284779
v 0.154460 0.533673 3.350357
v 0.154460 0.468095 3.394174
v 0.154460 0.390741 3.409561
v 0.154460 0.313387 3.394174
v 0.154460 0.247809 3.350357
v 0.154460 0.203991 3.284779
v 0.209158 0.577491 3.262122
v 0.255528 0.533673 3.308493
v 0.286512 0.468096 3.339476
v 0.297392 0.390741 3.350357
v 0.286512 0.313387 3.339476
v 0.255528 0.247809 3.308492
v 0.209157 0.203991 3.262122
v 0.231814 0.577491 3.207424
v 0.297392 0.533673 3.207424
v 0.341210 0.468095 3.207424
v 0.356597 0.390741 3.207424
v 0.341210 0.313387 3.207424
v 0.297392 0.247809 3.207425
v 0.231814 0.203991 3.207424
v 0.209158 0.577491 3.152726
v 0.255528 0.533673 3.106356
v 0.286512 0.468095 3.075372
v 0.297392 0.390741 3.064492
v 0.286512 0.313387 3.075372
v 0.255528 0.247809 3.106356
v 0.209157 0.203991 3.152727
v 0.154460 0.188604 3.207424
v 0.154460 0.592878 3.207424
v 0.154460 0.577491 3.130070
v 0.154460 0.533673 3.064492
v 0.154460 0.468095 3.020674
v 0.154460 0.390741 3.005288
v 0.154460 0.313387 3.020675
v 0.154460 0.247809 3.064492
v 0.154460 0.203991 3.130070
v 0.126882 0.237271 3.319039
v 0.103477 0.215154 3.295633
v 0.087837 0.182053 3.279994
v 0.082346 0.143008 3.274503
v 0.087837 0.103963 3.279994
v 0.103477 0.070863 3.295633
v 0.126882 0.048745 3.319039
v 0.115446 0.237271 3.346648
v 0.082345 0.215154 3.346648
v 0.060228 0.182053 3.346648
v 0.052462 0.143008 3.346648
v 0.060229 0.103963 3.346648
v 0.082346 0.070863 3.346648
v 0.115446 0.048745 3.346648
v 0.126882 0.237271 3.374257
v 0.103476 0.215154 3.397663
v 0.087837 0.182053 3.413301
v 0.082345 0.143008 3.418793
v 0.087837 0.103963 3.413301
v 0.103476 0.070863 3.397663
v 0.126882 0.048745 3.374257
v 0.154491 0.237271 3.385693
v 0.154491 0.215154 3.418793
v 0.154491 0.182053 3.440910
v 0.154491 0.143008 3.448677
v 0.154491 0.103963 3.440911
v 0.154491 0.070863 3.418793
v 0.154491 0.048745 3.385693
v 0.182100 0.237271 3.374257
v 0.205506 0.215154 3.397663
v 0.221145 0.182053 3.413302
v 0.226637 0.143008 3.418793
v 0.221145 0.103963 3.413302
v 0.205506 0.070863 3.397662
v 0.182100 0.048745 3.374257
v 0.193536 0.237271 3.346648
v 0.226637 0.215154 3.346648
v 0.248754 0.182053 3.346648
v 0.256520 0.143008 3.346648
v 0.248754 0.103963 3.346648
v 0.226637 0.070863 3.346648
v 0.193536 0.048745 3.346648
v 0.182100 0.237271 3.319039
v 0.205505 0.215154 3.295633
v 0.221145 0.182053 3.279994
v 0.226637 0.143008 3.274502
v 0.221145 0.103963 3.279994
v 0.205506 0.070863 3.295633
v 0.182100 0.048745 3.319039
v 0.154491 0.040979 3.346648
v 0.154491 0.245037 3.346648
v 0.154491 0.237271 3.307603
v 0.154491 0.215154 3.274503
v 0.154491 0.182053 3.252385
v 0.154491 0.143008 3.244619
v 0.154491 0.103963 3.252385
v 0.154491 0.070863 3.274502
v 0.154491 0.048745 3.307603
v 0.279084 0.272936 3.255890
v 0.255678 0.250819 3.232484
v 0.240039 0.217718 3.216845
v 0.234547 0.178673 3.211353
v 0.240039 0.139628 3.216845
v 0.255678 0.106527 3.232484
v 0.279084 0.084410 3.255890
v 0.267648 0.272936 3.283499
v 0.234547 0.250819 3.283499
v 0.212430 0.217718 3.283499
v 0.204663 0.178673 3.283499
v 0.212430 0.139628 3.283499
v 0.234547 0.106528 3.283499
v 0.267648 0.084410 3.283499
v 0.279084 0.272936 3.311107
v 0.255678 0.250819 3.334513
v 0.240039 0.217718 3.350152
v 0.234547 0.178673 3.355644
v 0.240039 0.139628 3.350152
v 0.255678 0.106528 3.334513
v 0.279084 0.084410 3.311108
v 0.306692 0.272936 3.322544
v 0.306693 0.250819 3.355644
v 0.306692 0.217718 3.377761
v 0.306693 0.178673 3.385528
v 0.306693 0.139628 3.377761
v 0.306693 0.106528 3.355644
v 0.306693 0.084410 3.322544
v 0.334302 0.272936 3.311107
v 0.357707 0.250819 3.334513
v 0.373347 0.217718 3.350152
v 0.378838 0.178673 3.355644
v 0.373346 0.139628 3.350153
v 0.357707 0.106528 3.334513
v 0.334302 0.084410 3.311108
v 0.345737 0.272936 3.283499
v 0.378838 0.250819 3.283499
v 0.400955 0.217718 3.283499
v 0.408722 0.178673 3.283499
v 0.400955 0.139628 3.283499
v 0.378838 0.106527 3.283499
v 0.345738 0.084410 3.283499
v 0.334302 0.272936 3.255890
v 0.357707 0.250819 3.232484
v 0.373346 0.217718 3.216845
v 0.378838 0.178673 3.211353
v 0.373347 0.139628 3.216845
v 0.357707 0.106528 3.232484
v 0.334301 0.084410 3.255890
v 0.306693 0.076644 3.283499
v 0.306693 0.280702 3.283499
v 0.306693 0.272936 3.244454
v 0.306693 0.250819 3.211353
v 0.306693 0.217718 3.189236
v 0.306693 0.178673 3.181470
v 0.306693 0.139628 3.189236
v 0.306693 0.106527 3.211353
v 0.306692 0.084410 3.244454
vn -0.8587 -0.4598 -0.2262
vn -0.1673 0.6241 -0.7632
vn 0.1769 -0.6273 0.7584
vn 0.8544 0.4549 0.2510
vn -0.8081 -0.5242 -0.2686
vn -0.0029 0.5756 -0.8177
vn 0.7980 0.5242 0.2973
vn 0.0028 -0.5747 0.8184
vn -0.3499 0.6824 -0.6418
vn 0.3049 0.6817 0.6650
vn 0.2273 -0.7029 0.6741
vn -0.1402 -0.6831 -0.7168
vn 0.0600 -0.3847 -0.9211
vn -0.9935 0.0505 -0.1022
vn -0.1976 0.1456 0.9694
vn 0.9719 -0.1883 0.1414
vn -0.5982 -0.7422 0.3023
vn -0.5773 -0.7604 0.2975
vn 0.6328 0.0284 0.7738
vn 0.7597 -0.0381 0.6492
vn 0.5883 0.7522 -0.2968
vn 0.5699 0.7673 -0.2941
vn -0.7555 0.0396 -0.6540
vn -0.6355 -0.0241 -0.7718
vn 0.9000 -0.2565 -0.3525
vn 0.0713 -0.9964 0.0450
vn -0.3790 0.0753 -0.9223
vn 0.3784 -0.0744 0.9226
vn -0.0665 0.9965 -0.0516
vn 0.8781 -0.2890 -0.3813
vn -0.7780 -0.1138 -0.6179
vn 0.6920 -0.0035 0.7219
vn -0.9043 0.1736 0.3900
vn -0.7497 -0.0451 -0.6602
vn -0.2192 -0.9608 0.1695
vn -0.2252 -0.0693 0.9718
vn -0.9976 -0.0089 -0.0688
vn 0.1706 -0.1115 -0.9790
vn 0.6888 -0.1168 0.7154
vn 0.8501 -0.1375 -0.5084
vn -0.8659 -0.0256 0.4996
vn 0.9904 -0.1265 0.0549
vn -0.5046 -0.3999 -0.7651
vn 0.5775 0.5790 -0.5755
vn -0.5762 -0.5814 0.5744
vn 0.4828 0.3976 0.7803
vn -0.3649 -0.5242 -0.7694
vn 0.5886 0.5756 -0.5676
vn 0.3372 0.5242 0.7820
vn -0.5891 -0.5747 0.5680
vn 0.2215 0.6824 -0.6966
vn -0.2695 0.6817 0.6802
vn -0.3297 -0.7029 0.6303
vn 0.4208 -0.6831 -0.5970
vn 0.7068 -0.3847 -0.5937
vn -0.6133 0.0505 -0.7882
vn -0.8368 0.1456 0.5278
vn 0.5701 -0.1883 0.7997
vn -0.6320 -0.7422 -0.2230
vn -0.7216 -0.6390 -0.2663
vn -0.1213 0.0284 0.9922
vn 0.0473 -0.0360 0.9982
vn 0.6212 0.7522 0.2196
vn 0.7124 0.6504 0.2635
vn -0.0407 0.0374 -0.9985
vn 0.1179 -0.0241 -0.9927
vn 0.8771 -0.2565 0.4062
vn 0.0168 -0.9964 0.0826
vn 0.4040 0.0753 -0.9116
vn -0.4046 -0.0744 0.9114
vn -0.0087 0.9965 -0.0837
vn 0.8827 -0.2890 0.3706
vn -0.0918 -0.1138 -0.9892
vn -0.0428 -0.0035 0.9991
vn -0.9071 0.1736 -0.3834
vn -0.0417 -0.0451 -0.9981
vn -0.2741 -0.9608 -0.0411
vn -0.8577 -0.0693 0.5095
vn -0.6402 -0.0089 -0.7681
vn 0.8251 -0.1115 -0.5539
vn -0.0403 -0.1168 0.9923
vn 0.9551 -0.1375 0.2624
vn -0.9597 -0.0256 -0.2798
vn 0.6454 -0.1265 0.7533
vn 0.2497 0.9356 -0.2497
vn -0.2497 0.9356 -0.2497
vn -0.2497 0.9356 0.2497
vn 0.2497 0.9356 0.2497
vn 0.2976 -0.3785 0.8764
vn 0.2976 0.3785 0.8764
vn -0.2976 0.3785 0.8764
vn -0.2976 -0.3785 0.8764
vn -0.8764 -0.3785 0.2976
vn -0.8764 0.3785 0.2976
vn -0.8764 0.3785 -0.2976
vn -0.8764 -0.3785 -0.2976
vn -0.2497 -0.9356 -0.2497
vn 0.2497 -0.9356 -0.2497
vn 0.2497 -0.9356 0.2497
vn -0.2497 -0.9356 0.2497
vn 0.8764 -0.3785 -0.2976
vn 0.8764 0.3785 -0.2976
vn 0.8764 0.3785 0.2976
vn 0.8764 -0.3785 0.2976
vn -0.2976 -0.3785 -0.8764
vn -0.2976 0.3785 -0.8764
vn 0.2976 0.3785 -0.8764
vn 0.2976 -0.3785 -0.8764
vn -0.9991 0.0330 -0.0272
vn -0.0000 0.4021 -0.9156
vn 0.8158 0.0681 -0.5742
vn 0.6195 -0.4021 0.6741
vn -0.1075 -0.9650 -0.2391
vn 0.1067 0.9649 0.2400
vn 0.0067 0.9269 0.3753
vn -0.0062 -0.9270 -0.3750
vn 0.9958 -0.0632 0.0663
vn -0.8623 -0.0455 0.5044
vn 0.6196 -0.4021 0.6741
vn 0.2497 0.9683 0.0033
vn -0.2497 0.9683 0.0033
vn -0.2497 0.8379 0.4854
vn 0.2497 0.8379 0.4854
vn 0.2976 -0.5943 0.7472
vn 0.2976 0.1365 0.9449
vn -0.2976 0.1365 0.9449
vn -0.2976 -0.5943 0.7472
vn -0.8764 -0.4431 0.1884
vn -0.8764 0.2877 0.3861
vn -0.8764 0.4431 -0.1884
vn -0.8764 -0.2877 -0.3861
vn -0.2497 -0.8379 -0.4854
vn 0.2497 -0.8379 -0.4854
vn 0.2497 -0.9683 -0.0033
vn -0.2497 -0.9683 -0.0033
vn 0.8764 -0.2877 -0.3861
vn 0.8764 0.4431 -0.1884
vn 0.8764 0.2877 0.3861
vn 0.8764 -0.4431 0.1884
vn -0.2976 -0.1365 -0.9449
vn -0.2976 0.5943 -0.7472
vn 0.2976 0.5943 -0.7472
vn 0.2976 -0.1365 -0.9449
vn 0.2243 -0.8103 -0.5414
vn 0.3764 -0.1807 -0.9087
vn 0.3256 0.5253 -0.7862
vn 0.0805 0.9776 -0.1945
vn 0.0805 -0.9776 -0.1945
vn 0.3256 -0.5253 -0.7862
vn 0.3764 0.1807 -0.9087
vn 0.2243 0.8103 -0.5414
vn 0.7862 0.5253 -0.3256
vn 0.1945 0.9776 -0.0805
vn 0.1945 -0.9776 -0.0805
vn 0.7862 -0.5253 -0.3256
vn 0.9087 0.1807 -0.3764
vn 0.5414 0.8103 -0.2243
vn 0.5414 -0.8103 -0.2243
vn 0.9087 -0.1807 -0.3764
vn 0.1945 -0.9776 0.0805
vn 0.7862 -0.5253 0.3256
vn 0.9087 0.1807 0.3764
vn 0.5414 0.8103 0.2243
vn 0.5414 -0.8103 0.2243
vn 0.9087 -0.1807 0.3764
vn 0.7862 0.5253 0.3256
vn 0.1945 0.9776 0.0805
vn 0.2243 0.8103 0.5414
vn 0.2243 -0.8103 0.5414
vn 0.3764 -0.1807 0.9087
vn 0.3256 0.5253 0.7862
vn 0.0805 0.9776 0.1945
vn 0.0805 -0.9776 0.1945
vn 0.3256 -0.5253 0.7862
vn 0.3764 0.1807 0.9087
vn -0.2243 -0.8103 0.5414
vn -0.3764 -0.1807 0.9087
vn -0.3256 0.5253 0.7862
vn -0.0805 0.9776 0.1945
vn -0.0805 -0.9776 0.1945
vn -0.3256 -0.5253 0.7862
vn -0.3764 0.1807 0.9087
vn -0.2243 0.8103 0.5414
vn -0.1945 0.9776 0.0805
vn -0.1945 -0.9776 0.0805
vn -0.7862 -0.5253 0.3256
vn -0.9087 0.1807 0.3764
vn -0.5414 0.8103 0.2243
vn -0.5414 -0.8103 0.2243
vn -0.9087 -0.1807 0.3764
vn -0.7862 0.5253 0.3256
vn -0.7862 -0.5253 -0.3256
vn -0.9087 0.1807 -0.3764
vn -0.5414 0.8103 -0.2243
vn -0.5414 -0.8103 -0.2243
vn -0.9087 -0.1807 -0.3764
vn -0.7862 0.5253 -0.3256
vn -0.1945 0.9776 -0.0805
vn -0.1945 -0.9776 -0.0805
vn -0.2243 -0.8103 -0.5414
vn -0.3764 -0.1807 -0.9087
vn -0.3256 0.5253 -0.7862
vn -0.0805 0.9776 -0.1945
vn -0.0805 -0.9776 -0.1945
vn -0.3256 -0.5253 -0.7862
vn -0.3764 0.1807 -0.9087
vn -0.2243 0.8103 -0.5414
vn 0.7861 -0.5253 0.3256
vn -0.7861 -0.5253 -0.3256
vn -0.7861 0.5253 -0.3256
vn -0.3256 0.5253 -0.7861
vn -0.3256 -0.5253 -0.7861
vn 0.3256 0.5253 0.7861
vn -0.3256 0.5253 0.7861
vn -0.0806 0.9776 0.1945
vn 0.8587 -0.4598 -0.2262
vn 0.1673 0.6241 -0.7632
vn -0.1769 -0.6273 0.7584
vn -0.8544 0.4549 0.2510
vn 0.8081 -0.5242 -0.2686
vn 0.0029 0.5756 -0.8177
vn -0.7980 0.5242 0.2973
vn -0.0028 -0.5747 0.8184
vn 0.3499 0.6824 -0.6418
vn -0.3049 0.6817 0.6650
vn -0.2273 -0.7029 0.6741
vn 0.1402 -0.6831 -0.7168
vn -0.0600 -0.3847 -0.9211
vn 0.9935 0.0505 -0.1022
vn 0.1976 0.1456 0.9694
vn -0.9719 -0.1883 0.1414
vn 0.5982 -0.7422 0.3023
vn 0.5773 -0.7604 0.2975
vn -0.6328 0.0284 0.7738
vn -0.7597 -0.0381 0.6492
vn -0.5883 0.7522 -0.2968
vn -0.5699 0.7673 -0.2941
vn 0.7555 0.0396 -0.6540
vn 0.6355 -0.0241 -0.7718
vn -0.9000 -0.2565 -0.3525
vn -0.0713 -0.9964 0.0450
vn 0.3790 0.0753 -0.9223
vn -0.3784 -0.0744 0.9226
vn 0.0665 0.9965 -0.0515
vn -0.8781 -0.2890 -0.3813
vn 0.7780 -0.1138 -0.6179
vn -0.6920 -0.0035 0.7219
vn 0.9043 0.1736 0.3900
vn 0.7497 -0.0451 -0.6602
vn 0.2192 -0.9608 0.1695
vn 0.2252 -0.0693 0.9718
vn 0.9976 -0.0089 -0.0688
vn -0.1706 -0.1115 -0.9790
vn -0.6888 -0.1168 0.7154
vn -0.8501 -0.1375 -0.5084
vn 0.8659 -0.0256 0.4996
vn -0.9904 -0.1265 0.0549
vn 0.5046 -0.3999 -0.7651
vn -0.5775 0.5790 -0.5755
vn 0.5762 -0.5814 0.5744
vn -0.4828 0.3976 0.7803
vn 0.3649 -0.5242 -0.7694
vn -0.5886 0.5756 -0.5676
vn -0.3372 0.5242 0.7820
vn 0.5891 -0.5747 0.5680
vn -0.2215 0.6824 -0.6966
vn 0.2695 0.6817 0.6802
vn 0.3297 -0.7029 0.6303
vn -0.4208 -0.6831 -0.5970
vn -0.7068 -0.3847 -0.5937
vn 0.6133 0.0505 -0.7882
vn 0.8368 0.1456 0.5278
vn -0.5701 -0.1883 0.7997
vn 0.6320 -0.7422 -0.2230
vn 0.7216 -0.6390 -0.2663
vn 0.1213 0.0284 0.9922
vn -0.0473 -0.0360 0.9982
vn -0.6212 0.7522 0.2196
vn -0.7124 0.6504 0.2635
vn 0.0407 0.0374 -0.9985
vn -0.1179 -0.0241 -0.9927
vn -0.8771 -0.2565 0.4062
vn -0.0168 -0.9964 0.0826
vn -0.4040 0.0753 -0.9116
vn 0.4046 -0.0744 0.9114
vn 0.0087 0.9965 -0.0837
vn -0.8827 -0.2890 0.3706
vn 0.0918 -0.1138 -0.9892
vn 0.0428 -0.0035 0.9991
vn 0.9071 0.1736 -0.3834
vn 0.0417 -0.0451 -0.9981
vn 0.2741 -0.9608 -0.0411
vn 0.8577 -0.0693 0.5095
vn 0.6402 -0.0089 -0.7681
vn -0.8251 -0.1115 -0.5539
vn 0.0403 -0.1168 0.9923
vn -0.9551 -0.1375 0.2624
vn 0.9597 -0.0256 -0.2798
vn -0.6454 -0.1265 0.7533
vn 0.9991 0.0330 -0.0272
vn -0.8158 0.0681 -0.5742
vn -0.6196 -0.4021 0.6741
vn 0.1075 -0.9650 -0.2391
vn -0.1067 0.9649 0.2400
vn -0.0067 0.9269 0.3753
vn 0.0062 -0.9270 -0.3750
vn -0.9958 -0.0632 0.0663
vn 0.8623 -0.0455 0.5044
vn -0.6195 -0.4021 0.6741
vn -0.3764 0.1808 0.9087
vn -0.7861 0.5253 0.3256
vn 0.3764 0.1808 0.9087
vn 0.3256 -0.5253 0.7861
vn 0.7861 0.5253 -0.3256
vn 0.3764 0.1808 -0.9087
vn -0.1945 0.9776 0.0806
vn 0.0806 0.9776 0.1945
vn 0.1945 0.9776 0.0806
vn 0.7861 0.5253 0.3256
vn 0.1945 -0.9776 -0.0806
vn 0.3256 0.5253 -0.7861
vt 0.375000 0.556465
vt 0.125000 0.556513
vt 0.125000 0.500000
vt 0.414942 0.500000
vt 0.625000 0.250000
vt 0.625000 0.540193
vt 0.567679 0.500000
vt 0.567634 0.250000
vt 0.125000 0.693854
vt 0.375000 0.693888
vt 0.416528 0.750000
vt 0.125000 0.750000
vt 0.625000 0.709511
vt 0.625000 0.996848
vt 0.566630 1.000000
vt 0.566713 0.750000
vt 0.125000 0.556616
vt 0.625000 0.250000
vt 0.567615 0.250000
vt 0.625000 0.998960
vt 0.566526 1.000000
vt 0.125000 0.693781
vt 0.125000 0.750000
vt 0.568181 0.250000
vt 0.625000 0.250000
vt 0.566866 1.000000
vt 0.625000 1.000000
vt 0.125000 0.750000
vt 0.125000 0.693794
vt 0.125000 0.556710
vt 0.125000 0.595649
vt 0.625000 0.225537
vt 0.547446 0.250000
vt 0.625000 1.000000
vt 0.551167 1.000000
vt 0.125000 0.655780
vt 0.433067 1.000000
vt 0.433145 1.000000
vt 0.875000 0.695426
vt 0.875000 0.554771
vt 0.875000 0.554736
vt 0.875000 0.695477
vt 0.432079 0.250000
vt 0.432073 0.250000
vt 0.426934 0.250000
vt 0.428117 1.000000
vt 0.875000 0.554671
vt 0.875000 0.695589
vt 0.451587 0.250000
vt 0.446966 1.000000
vt 0.875000 0.592717
vt 0.875000 0.658547
vt 0.547446 0.250000
vt 0.375000 0.094220
vt 0.446966 0.000000
vt 0.551167 0.000000
vt 0.625000 0.091453
vt 0.375000 0.154351
vt 0.125000 0.595649
vt 0.125000 0.655780
vt 0.875000 0.592717
vt 0.875000 0.658547
vt 0.625000 0.500000
vt 0.750000 0.500000
vt 0.750000 0.625000
vt 0.625000 0.625000
vt 0.875000 0.500000
vt 0.875000 0.625000
vt 0.875000 0.750000
vt 0.750000 0.750000
vt 0.625000 0.750000
vt 0.375000 0.750000
vt 0.500000 0.750000
vt 0.500000 0.875000
vt 0.375000 0.875000
vt 0.625000 0.875000
vt 0.625000 1.000000
vt 0.500000 1.000000
vt 0.375000 1.000000
vt 0.375000 0.000000
vt 0.500000 0.000000
vt 0.500000 0.125000
vt 0.375000 0.125000
vt 0.625000 0.000000
vt 0.625000 0.125000
vt 0.500000 0.250000
vt 0.375000 0.250000
vt 0.125000 0.500000
vt 0.250000 0.500000
vt 0.250000 0.625000
vt 0.125000 0.625000
vt 0.375000 0.500000
vt 0.375000 0.625000
vt 0.250000 0.750000
vt 0.125000 0.750000
vt 0.500000 0.500000
vt 0.500000 0.625000
vt 0.500000 0.375000
vt 0.375000 0.375000
vt 0.625000 0.375000
vt 0.375000 0.125000
vt 0.625000 0.125000
vt 0.375000 0.625000
vt 0.375000 1.000000
vt 0.125000 0.625000
vt 0.875000 0.625000
vt 0.875000 0.750000
vt 0.875000 0.500000
vt 0.375000 0.000000
vt 0.625000 0.000000
vt 0.750000 0.125000
vt 0.750000 0.250000
vt 0.625000 0.125000
vt 0.750000 0.375000
vt 0.750000 0.500000
vt 0.625000 0.375000
vt 0.750000 0.625000
vt 0.750000 0.750000
vt 0.625000 0.750000
vt 0.625000 0.625000
vt 0.750000 0.875000
vt 0.687500 1.000000
vt 0.625000 0.875000
vt 0.687500 0.000000
vt 0.500000 0.750000
vt 0.500000 0.625000
vt 0.562500 1.000000
vt 0.500000 0.875000
vt 0.562500 0.000000
vt 0.500000 0.125000
vt 0.500000 0.375000
vt 0.500000 0.250000
vt 0.500000 0.500000
vt 0.437500 0.000000
vt 0.375000 0.125000
vt 0.375000 0.375000
vt 0.375000 0.625000
vt 0.375000 0.875000
vt 0.375000 0.750000
vt 0.437500 1.000000
vt 0.250000 0.875000
vt 0.250000 0.750000
vt 0.250000 0.250000
vt 0.250000 0.125000
vt 0.250000 0.500000
vt 0.250000 0.375000
vt 0.250000 0.625000
vt 0.312500 1.000000
vt 0.312500 0.000000
vt 0.125000 0.250000
vt 0.125000 0.125000
vt 0.125000 0.375000
vt 0.125000 0.750000
vt 0.125000 0.625000
vt 0.187500 1.000000
vt 0.125000 0.875000
vt 0.187500 0.000000
vt 0.062500 1.000000
vt 0.000000 0.875000
vt 0.062500 0.000000
vt 0.000000 0.125000
vt 0.000000 0.375000
vt 0.000000 0.250000
vt 0.000000 0.625000
vt 0.000000 0.500000
vt 0.000000 0.750000
vt 1.000000 0.250000
vt 1.000000 0.375000
vt 0.875000 0.375000
vt 0.875000 0.250000
vt 1.000000 0.500000
vt 1.000000 0.625000
vt 0.875000 0.625000
vt 1.000000 0.750000
vt 1.000000 0.875000
vt 0.875000 0.875000
vt 0.875000 0.750000
vt 1.000000 0.125000
vt 0.875000 0.125000
vt 0.937500 1.000000
vt 0.937500 0.000000
vt 0.812500 1.000000
vt 0.812500 0.000000
s 0
usemtl 
f 13/1/1 5/2/1 6/3/1 14/4/1
f 8/5/2 16/6/2 15/7/2 7/8/2
f 2/9/3 10/10/3 9/11/3 1/12/3
f 11/13/4 3/14/4 4/15/4 12/16/4
f 5/2/5 17/17/5 18/3/5 6/3/5
f 24/18/6 8/5/6 7/8/6 23/19/6
f 3/14/7 21/20/7 22/21/7 4/15/7
f 20/22/8 2/9/8 1/12/8 19/23/8
f 23/19/9 31/24/9 32/25/9 24/18/9
f 30/26/10 22/21/10 21/20/10 29/27/10
f 19/23/11 27/28/11 28/29/11 20/22/11
f 26/3/12 18/3/12 17/17/12 25/30/12
f 25/30/13 34/31/13 33/3/13 26/3/13
f 39/32/14 32/25/14 31/24/14 40/33/14
f 29/27/15 38/34/15 37/35/15 30/26/15
f 35/36/16 28/29/16 27/28/16 36/12/16
f 5/2/17 2/9/17 20/22/17 17/17/17
f 5/2/18 13/1/18 10/10/18 2/9/18
f 1/37/19 4/15/19 22/21/19 19/38/19
f 9/11/20 12/16/20 4/15/20 1/37/20
f 3/39/21 8/40/21 24/41/21 21/42/21
f 16/6/22 8/40/22 3/39/22 11/13/22
f 6/43/23 7/8/23 15/7/23 14/4/23
f 7/8/24 6/43/24 18/44/24 23/19/24
f 13/1/25 14/4/25 15/7/25 16/6/25 11/13/25 12/16/25 9/11/25 10/10/25
f 17/17/26 20/22/26 28/29/26 25/30/26
f 23/19/27 18/44/27 26/45/27 31/24/27
f 19/38/28 22/21/28 30/26/28 27/46/28
f 21/42/29 24/41/29 32/47/29 29/48/29
f 25/30/30 28/29/30 35/36/30 34/31/30
f 31/24/31 26/45/31 33/49/31 40/33/31
f 27/46/32 30/26/32 37/35/32 36/50/32
f 29/48/33 32/47/33 39/51/33 38/52/33
f 40/33/34 33/49/34 42/49/34 43/53/34
f 48/54/35 47/55/35 46/56/35 45/57/35 44/32/35 43/53/35 42/49/35 41/58/35
f 37/35/36 38/34/36 45/34/36 46/35/36
f 39/32/37 40/33/37 43/53/37 44/32/37
f 33/3/38 34/31/38 41/59/38 42/3/38
f 36/50/39 37/35/39 46/35/39 47/50/39
f 34/31/40 35/36/40 48/60/40 41/59/40
f 38/52/41 39/51/41 44/61/41 45/62/41
f 35/36/42 36/12/42 47/12/42 48/60/42
f 61/1/43 53/2/43 54/3/43 62/4/43
f 56/5/44 64/6/44 63/7/44 55/8/44
f 50/9/45 58/10/45 57/11/45 49/12/45
f 59/13/46 51/14/46 52/15/46 60/16/46
f 53/2/47 65/17/47 66/3/47 54/3/47
f 72/18/48 56/5/48 55/8/48 71/19/48
f 51/14/49 69/20/49 70/21/49 52/15/49
f 68/22/50 50/9/50 49/12/50 67/23/50
f 71/19/51 79/24/51 80/25/51 72/18/51
f 78/26/52 70/21/52 69/20/52 77/27/52
f 67/23/53 75/28/53 76/29/53 68/22/53
f 74/3/54 66/3/54 65/17/54 73/30/54
f 73/30/55 82/31/55 81/3/55 74/3/55
f 87/32/56 80/25/56 79/24/56 88/33/56
f 77/27/57 86/34/57 85/35/57 78/26/57
f 83/36/58 76/29/58 75/28/58 84/12/58
f 53/2/59 50/9/59 68/22/59 65/17/59
f 53/2/60 61/1/60 58/10/60 50/9/60
f 49/37/61 52/15/61 70/21/61 67/38/61
f 57/11/62 60/16/62 52/15/62 49/37/62
f 51/39/63 56/40/63 72/41/63 69/42/63
f 64/6/64 56/40/64 51/39/64 59/13/64
f 54/43/65 55/8/65 63/7/65 62/4/65
f 55/8/66 54/43/66 66/44/66 71/19/66
f 61/1/67 62/4/67 63/7/67 64/6/67 59/13/67 60/16/67 57/11/67 58/10/67
f 65/17/68 68/22/68 76/29/68 73/30/68
f 71/19/69 66/44/69 74/45/69 79/24/69
f 67/38/70 70/21/70 78/26/70 75/46/70
f 69/42/71 72/41/71 80/47/71 77/48/71
f 73/30/72 76/29/72 83/36/72 82/31/72
f 79/24/73 74/45/73 81/49/73 88/33/73
f 75/46/74 78/26/74 85/35/74 84/50/74
f 77/48/75 80/47/75 87/51/75 86/52/75
f 88/33/76 81/49/76 90/49/76 91/53/76
f 96/54/77 95/55/77 94/56/77 93/57/77 92/32/77 91/53/77 90/49/77 89/58/77
f 85/35/78 86/34/78 93/34/78 94/35/78
f 87/32/79 88/33/79 91/53/79 92/32/79
f 81/3/80 82/31/80 89/59/80 90/3/80
f 84/50/81 85/35/81 94/35/81 95/50/81
f 82/31/82 83/36/82 96/60/82 89/59/82
f 86/52/83 87/51/83 92/61/83 93/62/83
f 83/36/84 84/12/84 95/12/84 96/60/84
f 157/101/109 158/102/109 152/5/109 151/87/109
f 151/87/110 152/5/110 156/63/110 155/92/110
f 159/103/111 160/66/111 154/71/111 153/72/111
f 153/72/112 154/71/112 150/34/112 149/104/112
f 157/105/113 159/103/113 153/72/113 149/12/113
f 160/66/114 158/106/114 150/107/114 154/71/114
f 156/63/115 152/108/115 158/106/115 160/66/115
f 151/3/116 155/92/116 159/103/116 157/105/116
f 155/92/117 156/63/117 160/66/117 159/103/117
f 149/109/118 150/110/118 158/102/118 157/101/118
f 169/101/109 170/102/109 164/5/109 163/87/109
f 163/87/110 164/5/110 168/63/110 167/92/110
f 171/103/111 172/66/111 166/71/111 165/72/111
f 165/72/119 166/71/119 162/34/119 161/104/119
f 169/105/113 171/103/113 165/72/113 161/12/113
f 172/66/114 170/106/114 162/107/114 166/71/114
f 168/63/115 164/108/115 170/106/115 172/66/115
f 163/3/116 167/92/116 171/103/116 169/105/116
f 167/92/117 168/63/117 172/66/117 171/103/117
f 161/109/118 162/110/118 170/102/118 169/101/118
f 256/111/144 255/112/144 204/5/144 205/113/144
f 254/114/145 253/115/145 202/63/145 203/116/145
f 252/117/146 251/118/146 200/119/146 201/120/146
f 250/121/147 249/122/147 199/123/147
f 248/124/148 256/111/148 205/113/148
f 255/112/149 254/114/149 203/116/149 204/5/149
f 253/115/150 252/117/150 201/120/150 202/63/150
f 251/118/151 250/121/151 199/123/151 200/119/151
f 201/120/152 200/119/152 207/125/152 208/126/152
f 199/123/153 249/127/153 206/128/153
f 248/129/154 205/113/154 212/130/154
f 204/5/155 203/116/155 210/131/155 211/132/155
f 202/63/156 201/120/156 208/126/156 209/133/156
f 200/119/157 199/123/157 206/128/157 207/125/157
f 205/113/158 204/5/158 211/132/158 212/130/158
f 203/116/159 202/63/159 209/133/159 210/131/159
f 248/134/160 212/130/160 219/135/160
f 211/132/161 210/131/161 217/136/161 218/87/161
f 209/133/162 208/126/162 215/137/162 216/92/162
f 207/125/163 206/128/163 213/138/163 214/139/163
f 212/130/164 211/132/164 218/87/164 219/135/164
f 210/131/165 209/133/165 216/92/165 217/136/165
f 208/126/166 207/125/166 214/139/166 215/137/166
f 206/128/167 249/140/167 213/138/167
f 214/139/168 213/138/168 220/141/168 221/142/168
f 219/135/169 218/87/169 225/143/169 226/144/169
f 217/136/170 216/92/170 223/145/170 224/146/170
f 215/137/171 214/139/171 221/142/171 222/147/171
f 213/138/172 249/148/172 220/141/172
f 248/149/173 219/135/173 226/144/173
f 218/87/174 217/136/174 224/146/174 225/143/174
f 216/92/175 215/137/175 222/147/175 223/145/175
f 226/144/176 225/143/176 232/150/176 233/151/176
f 224/146/177 223/145/177 230/3/177 231/152/177
f 222/147/178 221/142/178 228/153/178 229/154/178
f 220/141/179 249/155/179 227/156/179
f 248/157/180 226/144/180 233/151/180
f 225/143/181 224/146/181 231/152/181 232/150/181
f 223/145/182 222/147/182 229/154/182 230/3/182
f 221/142/183 220/141/183 227/156/183 228/153/183
f 227/156/184 249/158/184 234/159/184
f 248/160/185 233/151/185 240/161/185
f 232/150/186 231/152/186 238/162/186 239/163/186
f 230/3/187 229/154/187 236/164/187 237/165/187
f 228/153/188 227/156/188 234/159/188 235/166/188
f 233/151/189 232/150/189 239/163/189 240/161/189
f 231/152/190 230/3/190 237/165/190 238/162/190
f 229/154/191 228/153/191 235/166/191 236/164/191
f 239/167/192 238/168/192 245/169/192 246/170/192
f 237/171/193 236/172/193 243/173/193 244/108/193
f 235/174/194 234/175/194 241/176/194 242/177/194
f 240/178/195 239/167/195 246/170/195 247/179/195
f 238/168/196 237/171/196 244/108/196 245/169/196
f 236/172/197 235/174/197 242/177/197 243/173/197
f 234/175/198 249/180/198 241/176/198
f 248/181/199 240/178/199 247/179/199
f 247/179/200 246/170/200 255/112/200 256/111/200
f 245/169/201 244/108/201 253/115/201 254/114/201
f 243/173/202 242/177/202 251/118/202 252/117/202
f 241/176/203 249/182/203 250/121/203
f 248/183/204 247/179/204 256/111/204
f 246/170/205 245/169/205 254/114/205 255/112/205
f 244/108/206 243/173/206 252/117/206 253/115/206
f 242/177/207 241/176/207 250/121/207 251/118/207
f 314/111/144 313/112/144 262/5/144 263/113/144
f 312/114/145 311/115/145 260/63/145 261/116/145
f 310/117/146 309/118/146 258/119/146 259/120/146
f 308/121/147 307/122/147 257/123/147
f 306/124/148 314/111/148 263/113/148
f 313/112/149 312/114/149 261/116/149 262/5/149
f 311/115/150 310/117/150 259/120/150 260/63/150
f 309/118/151 308/121/151 257/123/151 258/119/151
f 259/120/152 258/119/152 265/125/152 266/126/152
f 257/123/153 307/127/153 264/128/153
f 306/129/154 263/113/154 270/130/154
f 262/5/155 261/116/155 268/131/155 269/132/155
f 260/63/156 259/120/156 266/126/156 267/133/156
f 258/119/157 257/123/157 264/128/157 265/125/157
f 263/113/158 262/5/158 269/132/158 270/130/158
f 261/116/159 260/63/159 267/133/159 268/131/159
f 306/134/160 270/130/160 277/135/160
f 269/132/161 268/131/161 275/136/161 276/87/161
f 267/133/162 266/126/162 273/137/162 274/92/162
f 265/125/163 264/128/163 271/138/163 272/139/163
f 270/130/164 269/132/164 276/87/164 277/135/164
f 268/131/165 267/133/165 274/92/165 275/136/165
f 266/126/166 265/125/166 272/139/166 273/137/166
f 264/128/167 307/140/167 271/138/167
f 272/139/168 271/138/168 278/141/168 279/142/168
f 277/135/169 276/87/169 283/143/169 284/144/169
f 275/136/170 274/92/170 281/145/170 282/146/170
f 273/137/171 272/139/171 279/142/171 280/147/171
f 271/138/172 307/148/172 278/141/172
f 306/149/173 277/135/173 284/144/173
f 276/87/174 275/136/174 282/146/174 283/143/174
f 274/92/175 273/137/175 280/147/175 281/145/175
f 284/144/176 283/143/176 290/150/176 291/151/176
f 282/146/177 281/145/177 288/3/177 289/152/177
f 280/147/178 279/142/178 286/153/178 287/154/178
f 278/141/179 307/155/179 285/156/179
f 306/157/180 284/144/180 291/151/180
f 283/143/181 282/146/181 289/152/181 290/150/181
f 281/145/182 280/147/182 287/154/182 288/3/182
f 279/142/183 278/141/183 285/156/183 286/153/183
f 285/156/184 307/158/184 292/159/184
f 306/160/185 291/151/185 298/161/185
f 290/150/186 289/152/186 296/162/186 297/163/186
f 288/3/187 287/154/187 294/164/187 295/165/187
f 286/153/188 285/156/188 292/159/188 293/166/188
f 291/151/189 290/150/189 297/163/189 298/161/189
f 289/152/190 288/3/190 295/165/190 296/162/190
f 287/154/191 286/153/191 293/166/191 294/164/191
f 297/167/192 296/168/192 303/169/192 304/170/192
f 295/171/193 294/172/193 301/173/193 302/108/193
f 293/174/194 292/175/194 299/176/194 300/177/194
f 298/178/195 297/167/195 304/170/195 305/179/195
f 296/168/196 295/171/196 302/108/196 303/169/196
f 294/172/197 293/174/197 300/177/197 301/173/197
f 292/175/198 307/180/198 299/176/198
f 306/181/199 298/178/199 305/179/199
f 305/179/200 304/170/200 313/112/200 314/111/200
f 303/169/201 302/108/201 311/115/201 312/114/201
f 301/173/202 300/177/202 309/118/202 310/117/202
f 299/176/203 307/182/203 308/121/203
f 306/183/204 305/179/204 314/111/204
f 304/170/205 303/169/205 312/114/205 313/112/205
f 302/108/206 301/173/206 310/117/206 311/115/206
f 300/177/207 299/176/207 308/121/207 309/118/207
f 372/111/144 371/112/144 320/5/144 321/113/144
f 370/114/145 369/115/145 318/63/145 319/116/145
f 368/117/146 367/118/146 316/119/146 317/120/146
f 366/121/147 365/122/147 315/123/147
f 364/124/148 372/111/148 321/113/148
f 371/112/149 370/114/149 319/116/149 320/5/149
f 369/115/150 368/117/150 317/120/150 318/63/150
f 367/118/151 366/121/151 315/123/151 316/119/151
f 317/120/152 316/119/152 323/125/152 324/126/152
f 315/123/153 365/127/153 322/128/153
f 364/129/154 321/113/154 328/130/154
f 320/5/155 319/116/155 326/131/155 327/132/155
f 318/63/156 317/120/156 324/126/156 325/133/156
f 316/119/157 315/123/157 322/128/157 323/125/157
f 321/113/158 320/5/158 327/132/158 328/130/158
f 319/116/159 318/63/159 325/133/159 326/131/159
f 364/134/160 328/130/160 335/135/160
f 327/132/208 326/131/208 333/136/208 334/87/208
f 325/133/162 324/126/162 331/137/162 332/92/162
f 323/125/163 322/128/163 329/138/163 330/139/163
f 328/130/164 327/132/164 334/87/164 335/135/164
f 326/131/165 325/133/165 332/92/165 333/136/165
f 324/126/166 323/125/166 330/139/166 331/137/166
f 322/128/167 365/140/167 329/138/167
f 330/139/168 329/138/168 336/141/168 337/142/168
f 335/135/169 334/87/169 341/143/169 342/144/169
f 333/136/170 332/92/170 339/145/170 340/146/170
f 331/137/171 330/139/171 337/142/171 338/147/171
f 329/138/172 365/148/172 336/141/172
f 364/149/173 335/135/173 342/144/173
f 334/87/174 333/136/174 340/146/174 341/143/174
f 332/92/175 331/137/175 338/147/175 339/145/175
f 342/144/176 341/143/176 348/150/176 349/151/176
f 340/146/177 339/145/177 346/3/177 347/152/177
f 338/147/178 337/142/178 344/153/178 345/154/178
f 336/141/179 365/155/179 343/156/179
f 364/157/180 342/144/180 349/151/180
f 341/143/181 340/146/181 347/152/181 348/150/181
f 339/145/182 338/147/182 345/154/182 346/3/182
f 337/142/183 336/141/183 343/156/183 344/153/183
f 343/156/184 365/158/184 350/159/184
f 364/160/185 349/151/185 356/161/185
f 348/150/186 347/152/186 354/162/186 355/163/186
f 346/3/187 345/154/187 352/164/187 353/165/187
f 344/153/188 343/156/188 350/159/188 351/166/188
f 349/151/189 348/150/189 355/163/189 356/161/189
f 347/152/190 346/3/190 353/165/190 354/162/190
f 345/154/191 344/153/191 351/166/191 352/164/191
f 355/167/209 354/168/209 361/169/209 362/170/209
f 353/171/193 352/172/193 359/173/193 360/108/193
f 351/174/194 350/175/194 357/176/194 358/177/194
f 356/178/195 355/167/195 362/170/195 363/179/195
f 354/168/196 353/171/196 360/108/196 361/169/196
f 352/172/210 351/174/210 358/177/210 359/173/210
f 350/175/198 365/180/198 357/176/198
f 364/181/199 356/178/199 363/179/199
f 363/179/200 362/170/200 371/112/200 372/111/200
f 361/169/201 360/108/201 369/115/201 370/114/201
f 359/173/211 358/177/211 367/118/211 368/117/211
f 357/176/203 365/182/203 366/121/203
f 364/183/204 363/179/204 372/111/204
f 362/170/212 361/169/212 370/114/212 371/112/212
f 360/108/206 359/173/206 368/117/206 369/115/206
f 358/177/207 357/176/207 366/121/207 367/118/207
f 430/111/144 429/112/144 378/5/144 379/113/144
f 428/114/145 427/115/145 376/63/145 377/116/145
f 426/117/146 425/118/146 374/119/146 375/120/146
f 424/121/147 423/122/147 373/123/147
f 422/124/148 430/111/148 379/113/148
f 429/112/149 428/114/149 377/116/149 378/5/149
f 427/115/150 426/117/150 375/120/150 376/63/150
f 425/118/151 424/121/151 373/123/151 374/119/151
f 375/120/152 374/119/152 381/125/152 382/126/152
f 373/123/153 423/127/153 380/128/153
f 422/129/154 379/113/154 386/130/154
f 378/5/155 377/116/155 384/131/155 385/132/155
f 376/63/156 375/120/156 382/126/156 383/133/156
f 374/119/157 373/123/157 380/128/157 381/125/157
f 379/113/158 378/5/158 385/132/158 386/130/158
f 377/116/159 376/63/159 383/133/159 384/131/159
f 422/134/160 386/130/160 393/135/160
f 385/132/208 384/131/208 391/136/208 392/87/208
f 383/133/162 382/126/162 389/137/162 390/92/162
f 381/125/163 380/128/163 387/138/163 388/139/163
f 386/130/164 385/132/164 392/87/164 393/135/164
f 384/131/165 383/133/165 390/92/165 391/136/165
f 382/126/166 381/125/166 388/139/166 389/137/166
f 380/128/167 423/140/167 387/138/167
f 388/139/168 387/138/168 394/141/168 395/142/168
f 393/135/169 392/87/169 399/143/169 400/144/169
f 391/136/170 390/92/170 397/145/170 398/146/170
f 389/137/213 388/139/213 395/142/213 396/147/213
f 387/138/172 423/148/172 394/141/172
f 422/149/173 393/135/173 400/144/173
f 392/87/174 391/136/174 398/146/174 399/143/174
f 390/92/175 389/137/175 396/147/175 397/145/175
f 400/144/176 399/143/176 406/150/176 407/151/176
f 398/146/177 397/145/177 404/3/177 405/152/177
f 396/147/214 395/142/214 402/153/214 403/154/214
f 394/141/215 423/155/215 401/156/215
f 422/157/180 400/144/180 407/151/180
f 399/143/181 398/146/181 405/152/181 406/150/181
f 397/145/182 396/147/182 403/154/182 404/3/182
f 395/142/183 394/141/183 401/156/183 402/153/183
f 401/156/184 423/158/184 408/159/184
f 422/160/185 407/151/185 414/161/185
f 406/150/186 405/152/186 412/162/186 413/163/186
f 404/3/187 403/154/187 410/164/187 411/165/187
f 402/153/188 401/156/188 408/159/188 409/166/188
f 407/151/189 406/150/189 413/163/189 414/161/189
f 405/152/190 404/3/190 411/165/190 412/162/190
f 403/154/191 402/153/191 409/166/191 410/164/191
f 413/167/192 412/168/192 419/169/192 420/170/192
f 411/171/193 410/172/193 417/173/193 418/108/193
f 409/174/194 408/175/194 415/176/194 416/177/194
f 414/178/195 413/167/195 420/170/195 421/179/195
f 412/168/196 411/171/196 418/108/196 419/169/196
f 410/172/197 409/174/197 416/177/197 417/173/197
f 408/175/198 423/180/198 415/176/198
f 422/181/199 414/178/199 421/179/199
f 421/179/200 420/170/200 429/112/200 430/111/200
f 419/169/201 418/108/201 427/115/201 428/114/201
f 417/173/202 416/177/202 425/118/202 426/117/202
f 415/176/203 423/182/203 424/121/203
f 422/183/204 421/179/204 430/111/204
f 420/170/205 419/169/205 428/114/205 429/112/205
f 418/108/206 417/173/206 426/117/206 427/115/206
f 416/177/207 415/176/207 424/121/207 425/118/207
f 443/1/216 444/4/216 436/3/216 435/2/216
f 438/5/217 437/8/217 445/7/217 446/6/217
f 432/9/218 431/12/218 439/11/218 440/10/218
f 441/13/219 442/16/219 434/15/219 433/14/219
f 435/2/220 436/3/220 448/3/220 447/17/220
f 454/18/221 453/19/221 437/8/221 438/5/221
f 433/14/222 434/15/222 452/21/222 451/20/222
f 450/22/223 449/23/223 431/12/223 432/9/223
f 453/19/224 454/18/224 462/25/224 461/24/224
f 460/26/225 459/27/225 451/20/225 452/21/225
f 449/23/226 450/22/226 458/29/226 457/28/226
f 456/3/227 455/30/227 447/17/227 448/3/227
f 455/30/228 456/3/228 463/3/228 464/31/228
f 469/32/229 470/33/229 461/24/229 462/25/229
f 459/27/230 460/26/230 467/35/230 468/34/230
f 465/36/231 466/12/231 457/28/231 458/29/231
f 435/2/232 447/17/232 450/22/232 432/9/232
f 435/2/233 432/9/233 440/10/233 443/1/233
f 431/37/234 449/38/234 452/21/234 434/15/234
f 439/11/235 431/37/235 434/15/235 442/16/235
f 433/39/236 451/42/236 454/41/236 438/40/236
f 446/6/237 441/13/237 433/39/237 438/40/237
f 436/43/238 444/4/238 445/7/238 437/8/238
f 437/8/239 453/19/239 448/44/239 436/43/239
f 443/1/240 440/10/240 439/11/240 442/16/240 441/13/240 446/6/240 445/7/240 444/4/240
f 447/17/241 455/30/241 458/29/241 450/22/241
f 453/19/242 461/24/242 456/45/242 448/44/242
f 449/38/243 457/46/243 460/26/243 452/21/243
f 451/42/244 459/48/244 462/47/244 454/41/244
f 455/30/245 464/31/245 465/36/245 458/29/245
f 461/24/246 470/33/246 463/49/246 456/45/246
f 457/46/247 466/50/247 467/35/247 460/26/247
f 459/48/248 468/52/248 469/51/248 462/47/248
f 470/33/249 473/53/249 472/49/249 463/49/249
f 478/54/250 471/58/250 472/49/250 473/53/250 474/32/250 475/57/250 476/56/250 477/55/250
f 467/35/251 476/35/251 475/34/251 468/34/251
f 469/32/252 474/32/252 473/53/252 470/33/252
f 463/3/253 472/3/253 471/59/253 464/31/253
f 466/50/254 477/50/254 476/35/254 467/35/254
f 464/31/255 471/59/255 478/60/255 465/36/255
f 468/52/256 475/62/256 474/61/256 469/51/256
f 465/36/257 478/60/257 477/12/257 466/12/257
f 491/1/258 492/4/258 484/3/258 483/2/258
f 486/5/259 485/8/259 493/7/259 494/6/259
f 480/9/260 479/12/260 487/11/260 488/10/260
f 489/13/261 490/16/261 482/15/261 481/14/261
f 483/2/262 484/3/262 496/3/262 495/17/262
f 502/18/263 501/19/263 485/8/263 486/5/263
f 481/14/264 482/15/264 500/21/264 499/20/264
f 498/22/265 497/23/265 479/12/265 480/9/265
f 501/19/266 502/18/266 510/25/266 509/24/266
f 508/26/267 507/27/267 499/20/267 500/21/267
f 497/23/268 498/22/268 506/29/268 505/28/268
f 504/3/269 503/30/269 495/17/269 496/3/269
f 503/30/270 504/3/270 511/3/270 512/31/270
f 517/32/271 518/33/271 509/24/271 510/25/271
f 507/27/272 508/26/272 515/35/272 516/34/272
f 513/36/273 514/12/273 505/28/273 506/29/273
f 483/2/274 495/17/274 498/22/274 480/9/274
f 483/2/275 480/9/275 488/10/275 491/1/275
f 479/37/276 497/38/276 500/21/276 482/15/276
f 487/11/277 479/37/277 482/15/277 490/16/277
f 481/39/278 499/42/278 502/41/278 486/40/278
f 494/6/279 489/13/279 481/39/279 486/40/279
f 484/43/280 492/4/280 493/7/280 485/8/280
f 485/8/281 501/19/281 496/44/281 484/43/281
f 491/1/282 488/10/282 487/11/282 490/16/282 489/13/282 494/6/282 493/7/282 492/4/282
f 495/17/283 503/30/283 506/29/283 498/22/283
f 501/19/284 509/24/284 504/45/284 496/44/284
f 497/38/285 505/46/285 508/26/285 500/21/285
f 499/42/286 507/48/286 510/47/286 502/41/286
f 503/30/287 512/31/287 513/36/287 506/29/287
f 509/24/288 518/33/288 511/49/288 504/45/288
f 505/46/289 514/50/289 515/35/289 508/26/289
f 507/48/290 516/52/290 517/51/290 510/47/290
f 518/33/291 521/53/291 520/49/291 511/49/291
f 526/54/292 519/58/292 520/49/292 521/53/292 522/32/292 523/57/292 524/56/292 525/55/292
f 515/35/293 524/35/293 523/34/293 516/34/293
f 517/32/294 522/32/294 521/53/294 518/33/294
f 511/3/295 520/3/295 519/59/295 512/31/295
f 514/50/296 525/50/296 524/35/296 515/35/296
f 512/31/297 519/59/297 526/60/297 513/36/297
f 516/52/298 523/62/298 522/61/298 517/51/298
f 513/36/299 526/60/299 525/12/299 514/12/299
f 571/101/300 565/87/300 566/5/300 572/102/300
f 565/87/110 569/92/110 570/63/110 566/5/110
f 573/103/301 567/72/301 568/71/301 574/66/301
f 567/72/302 563/104/302 564/34/302 568/71/302
f 571/105/303 563/12/303 567/72/303 573/103/303
f 574/66/304 568/71/304 564/107/304 572/106/304
f 570/63/305 574/66/305 572/106/305 566/108/305
f 565/3/306 571/105/306 573/103/306 569/92/306
f 569/92/307 573/103/307 574/66/307 570/63/307
f 563/109/308 571/101/308 572/102/308 564/110/308
f 583/101/300 577/87/300 578/5/300 584/102/300
f 577/87/110 581/92/110 582/63/110 578/5/110
f 585/103/301 579/72/301 580/71/301 586/66/301
f 579/72/309 575/104/309 576/34/309 580/71/309
f 583/105/303 575/12/303 579/72/303 585/103/303
f 586/66/304 580/71/304 576/107/304 584/106/304
f 582/63/305 586/66/305 584/106/305 578/108/305
f 577/3/306 583/105/306 585/103/306 581/92/306
f 581/92/307 585/103/307 586/66/307 582/63/307
f 575/109/308 583/101/308 584/102/308 576/110/308
f 670/111/200 619/113/200 618/5/200 669/112/200
f 668/114/201 617/116/201 616/63/201 667/115/201
f 666/117/202 615/120/202 614/119/202 665/118/202
f 664/121/203 613/123/203 663/122/203
f 662/124/204 619/113/204 670/111/204
f 669/112/205 618/5/205 617/116/205 668/114/205
f 667/115/206 616/63/206 615/120/206 666/117/206
f 665/118/207 614/119/207 613/123/207 664/121/207
f 615/120/197 622/126/197 621/125/197 614/119/197
f 613/123/198 620/128/198 663/127/198
f 662/129/199 626/130/199 619/113/199
f 618/5/192 625/132/192 624/131/192 617/116/192
f 616/63/193 623/133/193 622/126/193 615/120/193
f 614/119/194 621/125/194 620/128/194 613/123/194
f 619/113/195 626/130/195 625/132/195 618/5/195
f 617/116/196 624/131/196 623/133/196 616/63/196
f 662/134/185 633/135/185 626/130/185
f 625/132/186 632/87/186 631/136/186 624/131/186
f 623/133/187 630/92/187 629/137/187 622/126/187
f 621/125/188 628/139/188 627/138/188 620/128/188
f 626/130/189 633/135/189 632/87/189 625/132/189
f 624/131/190 631/136/190 630/92/190 623/133/190
f 622/126/191 629/137/191 628/139/191 621/125/191
f 620/128/184 627/138/184 663/140/184
f 628/139/183 635/142/183 634/141/183 627/138/183
f 633/135/176 640/144/176 639/143/176 632/87/176
f 631/136/177 638/146/177 637/145/177 630/92/177
f 629/137/178 636/147/178 635/142/178 628/139/178
f 627/138/179 634/141/179 663/148/179
f 662/149/180 640/144/180 633/135/180
f 632/87/181 639/143/181 638/146/181 631/136/181
f 630/92/310 637/145/310 636/147/310 629/137/310
f 640/144/169 647/151/169 646/150/169 639/143/169
f 638/146/170 645/152/170 644/3/170 637/145/170
f 636/147/213 643/154/213 642/153/213 635/142/213
f 634/141/172 641/156/172 663/155/172
f 662/157/173 647/151/173 640/144/173
f 639/143/174 646/150/174 645/152/174 638/146/174
f 637/145/175 644/3/175 643/154/175 636/147/175
f 635/142/168 642/153/168 641/156/168 634/141/168
f 641/156/167 648/159/167 663/158/167
f 662/160/160 654/161/160 647/151/160
f 646/150/161 653/163/161 652/162/161 645/152/161
f 644/3/162 651/165/162 650/164/162 643/154/162
f 642/153/163 649/166/163 648/159/163 641/156/163
f 647/151/164 654/161/164 653/163/164 646/150/164
f 645/152/165 652/162/165 651/165/165 644/3/165
f 643/154/166 650/164/166 649/166/166 642/153/166
f 653/167/155 660/170/155 659/169/155 652/168/155
f 651/171/156 658/108/156 657/173/156 650/172/156
f 649/174/157 656/177/157 655/176/157 648/175/157
f 654/178/158 661/179/158 660/170/158 653/167/158
f 652/168/159 659/169/159 658/108/159 651/171/159
f 650/172/152 657/173/152 656/177/152 649/174/152
f 648/175/153 655/176/153 663/180/153
f 662/181/154 661/179/154 654/178/154
f 661/179/144 670/111/144 669/112/144 660/170/144
f 659/169/145 668/114/145 667/115/145 658/108/145
f 657/173/146 666/117/146 665/118/146 656/177/146
f 655/176/147 664/121/147 663/182/147
f 662/183/148 670/111/148 661/179/148
f 660/170/149 669/112/149 668/114/149 659/169/149
f 658/108/150 667/115/150 666/117/150 657/173/150
f 656/177/151 665/118/151 664/121/151 655/176/151
f 728/111/200 677/113/200 676/5/200 727/112/200
f 726/114/201 675/116/201 674/63/201 725/115/201
f 724/117/202 673/120/202 672/119/202 723/118/202
f 722/121/203 671/123/203 721/122/203
f 720/124/204 677/113/204 728/111/204
f 727/112/205 676/5/205 675/116/205 726/114/205
f 725/115/206 674/63/206 673/120/206 724/117/206
f 723/118/207 672/119/207 671/123/207 722/121/207
f 673/120/197 680/126/197 679/125/197 672/119/197
f 671/123/198 678/128/198 721/127/198
f 720/129/199 684/130/199 677/113/199
f 676/5/192 683/132/192 682/131/192 675/116/192
f 674/63/193 681/133/193 680/126/193 673/120/193
f 672/119/194 679/125/194 678/128/194 671/123/194
f 677/113/195 684/130/195 683/132/195 676/5/195
f 675/116/196 682/131/196 681/133/196 674/63/196
f 720/134/185 691/135/185 684/130/185
f 683/132/186 690/87/186 689/136/186 682/131/186
f 681/133/187 688/92/187 687/137/187 680/126/187
f 679/125/188 686/139/188 685/138/188 678/128/188
f 684/130/189 691/135/189 690/87/189 683/132/189
f 682/131/190 689/136/190 688/92/190 681/133/190
f 680/126/311 687/137/311 686/139/311 679/125/311
f 678/128/184 685/138/184 721/140/184
f 686/139/183 693/142/183 692/141/183 685/138/183
f 691/135/176 698/144/176 697/143/176 690/87/176
f 689/136/177 696/146/177 695/145/177 688/92/177
f 687/137/178 694/147/178 693/142/178 686/139/178
f 685/138/179 692/141/179 721/148/179
f 720/149/180 698/144/180 691/135/180
f 690/87/181 697/143/181 696/146/181 689/136/181
f 688/92/182 695/145/182 694/147/182 687/137/182
f 698/144/169 705/151/169 704/150/169 697/143/169
f 696/146/170 703/152/170 702/3/170 695/145/170
f 694/147/171 701/154/171 700/153/171 693/142/171
f 692/141/172 699/156/172 721/155/172
f 720/157/173 705/151/173 698/144/173
f 697/143/174 704/150/174 703/152/174 696/146/174
f 695/145/312 702/3/312 701/154/312 694/147/312
f 693/142/168 700/153/168 699/156/168 692/141/168
f 699/156/167 706/159/167 721/158/167
f 720/160/160 712/161/160 705/151/160
f 704/150/161 711/163/161 710/162/161 703/152/161
f 702/3/162 709/165/162 708/164/162 701/154/162
f 700/153/163 707/166/163 706/159/163 699/156/163
f 705/151/164 712/161/164 711/163/164 704/150/164
f 703/152/165 710/162/165 709/165/165 702/3/165
f 701/154/166 708/164/166 707/166/166 700/153/166
f 711/167/155 718/170/155 717/169/155 710/168/155
f 709/171/156 716/108/156 715/173/156 708/172/156
f 707/174/157 714/177/157 713/176/157 706/175/157
f 712/178/158 719/179/158 718/170/158 711/167/158
f 710/168/159 717/169/159 716/108/159 709/171/159
f 708/172/152 715/173/152 714/177/152 707/174/152
f 706/175/153 713/176/153 721/180/153
f 720/181/154 719/179/154 712/178/154
f 719/179/144 728/111/144 727/112/144 718/170/144
f 717/169/145 726/114/145 725/115/145 716/108/145
f 715/173/146 724/117/146 723/118/146 714/177/146
f 713/176/147 722/121/147 721/182/147
f 720/183/148 728/111/148 719/179/148
f 718/170/149 727/112/149 726/114/149 717/169/149
f 716/108/150 725/115/150 724/117/150 715/173/150
f 714/177/151 723/118/151 722/121/151 713/176/151
f 786/111/200 735/113/200 734/5/200 785/112/200
f 784/114/201 733/116/201 732/63/201 783/115/201
f 782/117/202 731/120/202 730/119/202 781/118/202
f 780/121/203 729/123/203 779/122/203
f 778/124/204 735/113/204 786/111/204
f 785/112/205 734/5/205 733/116/205 784/114/205
f 783/115/206 732/63/206 731/120/206 782/117/206
f 781/118/207 730/119/207 729/123/207 780/121/207
f 731/120/197 738/126/197 737/125/197 730/119/197
f 729/123/198 736/128/198 779/127/198
f 778/129/199 742/130/199 735/113/199
f 734/5/192 741/132/192 740/131/192 733/116/192
f 732/63/193 739/133/193 738/126/193 731/120/193
f 730/119/194 737/125/194 736/128/194 729/123/194
f 735/113/195 742/130/195 741/132/195 734/5/195
f 733/116/196 740/131/196 739/133/196 732/63/196
f 778/134/185 749/135/185 742/130/185
f 741/132/186 748/87/186 747/136/186 740/131/186
f 739/133/187 746/92/187 745/137/187 738/126/187
f 737/125/188 744/139/188 743/138/188 736/128/188
f 742/130/189 749/135/189 748/87/189 741/132/189
f 740/131/190 747/136/190 746/92/190 739/133/190
f 738/126/191 745/137/191 744/139/191 737/125/191
f 736/128/184 743/138/184 779/140/184
f 744/139/183 751/142/183 750/141/183 743/138/183
f 749/135/176 756/144/176 755/143/176 748/87/176
f 747/136/177 754/146/177 753/145/177 746/92/177
f 745/137/178 752/147/178 751/142/178 744/139/178
f 743/138/179 750/141/179 779/148/179
f 778/149/180 756/144/180 749/135/180
f 748/87/181 755/143/181 754/146/181 747/136/181
f 746/92/182 753/145/182 752/147/182 745/137/182
f 756/144/169 763/151/169 762/150/169 755/143/169
f 754/146/170 761/152/170 760/3/170 753/145/170
f 752/147/171 759/154/171 758/153/171 751/142/171
f 750/141/172 757/156/172 779/155/172
f 778/157/173 763/151/173 756/144/173
f 755/143/313 762/150/313 761/152/313 754/146/313
f 753/145/175 760/3/175 759/154/175 752/147/175
f 751/142/168 758/153/168 757/156/168 750/141/168
f 757/156/167 764/159/167 779/158/167
f 778/160/160 770/161/160 763/151/160
f 762/150/161 769/163/161 768/162/161 761/152/161
f 760/3/162 767/165/162 766/164/162 759/154/162
f 758/153/163 765/166/163 764/159/163 757/156/163
f 763/151/164 770/161/164 769/163/164 762/150/164
f 761/152/165 768/162/165 767/165/165 760/3/165
f 759/154/166 766/164/166 765/166/166 758/153/166
f 769/167/155 776/170/155 775/169/155 768/168/155
f 767/171/156 774/108/156 773/173/156 766/172/156
f 765/174/157 772/177/157 771/176/157 764/175/157
f 770/178/158 777/179/158 776/170/158 769/167/158
f 768/168/159 775/169/159 774/108/159 767/171/159
f 766/172/314 773/173/314 772/177/314 765/174/314
f 764/175/153 771/176/153 779/180/153
f 778/181/154 777/179/154 770/178/154
f 777/179/144 786/111/144 785/112/144 776/170/144
f 775/169/145 784/114/145 783/115/145 774/108/145
f 773/173/146 782/117/146 781/118/146 772/177/146
f 771/176/147 780/121/147 779/182/147
f 778/183/148 786/111/148 777/179/148
f 776/170/149 785/112/149 784/114/149 775/169/149
f 774/108/315 783/115/315 782/117/315 773/173/315
f 772/177/151 781/118/151 780/121/151 771/176/151
f 844/111/200 793/113/200 792/5/200 843/112/200
f 842/114/201 791/116/201 790/63/201 841/115/201
f 840/117/211 789/120/211 788/119/211 839/118/211
f 838/121/203 787/123/203 837/122/203
f 836/124/204 793/113/204 844/111/204
f 843/112/212 792/5/212 791/116/212 842/114/212
f 841/115/206 790/63/206 789/120/206 840/117/206
f 839/118/207 788/119/207 787/123/207 838/121/207
f 789/120/197 796/126/197 795/125/197 788/119/197
f 787/123/198 794/128/198 837/127/198
f 836/129/199 800/130/199 793/113/199
f 792/5/192 799/132/192 798/131/192 791/116/192
f 790/63/193 797/133/193 796/126/193 789/120/193
f 788/119/194 795/125/194 794/128/194 787/123/194
f 793/113/195 800/130/195 799/132/195 792/5/195
f 791/116/196 798/131/196 797/133/196 790/63/196
f 836/134/185 807/135/185 800/130/185
f 799/132/186 806/87/186 805/136/186 798/131/186
f 797/133/187 804/92/187 803/137/187 796/126/187
f 795/125/188 802/139/188 801/138/188 794/128/188
f 800/130/189 807/135/189 806/87/189 799/132/189
f 798/131/190 805/136/190 804/92/190 797/133/190
f 796/126/311 803/137/311 802/139/311 795/125/311
f 794/128/316 801/138/316 837/140/316
f 802/139/183 809/142/183 808/141/183 801/138/183
f 807/135/176 814/144/176 813/143/176 806/87/176
f 805/136/177 812/146/177 811/145/177 804/92/177
f 803/137/214 810/147/214 809/142/214 802/139/214
f 801/138/179 808/141/179 837/148/179
f 836/149/180 814/144/180 807/135/180
f 806/87/181 813/143/181 812/146/181 805/136/181
f 804/92/182 811/145/182 810/147/182 803/137/182
f 814/144/169 821/151/169 820/150/169 813/143/169
f 812/146/170 819/152/170 818/3/170 811/145/170
f 810/147/171 817/154/171 816/153/171 809/142/171
f 808/141/317 815/156/317 837/155/317
f 836/157/173 821/151/173 814/144/173
f 813/143/313 820/150/313 819/152/313 812/146/313
f 811/145/175 818/3/175 817/154/175 810/147/175
f 809/142/168 816/153/168 815/156/168 808/141/168
f 815/156/318 822/159/318 837/158/318
f 836/160/160 828/161/160 821/151/160
f 820/150/161 827/163/161 826/162/161 819/152/161
f 818/3/162 825/165/162 824/164/162 817/154/162
f 816/153/163 823/166/163 822/159/163 815/156/163
f 821/151/164 828/161/164 827/163/164 820/150/164
f 819/152/165 826/162/165 825/165/165 818/3/165
f 817/154/319 824/164/319 823/166/319 816/153/319
f 827/167/155 834/170/155 833/169/155 826/168/155
f 825/171/156 832/108/156 831/173/156 824/172/156
f 823/174/157 830/177/157 829/176/157 822/175/157
f 828/178/158 835/179/158 834/170/158 827/167/158
f 826/168/159 833/169/159 832/108/159 825/171/159
f 824/172/152 831/173/152 830/177/152 823/174/152
f 822/175/153 829/176/153 837/180/153
f 836/181/320 835/179/320 828/178/320
f 835/179/144 844/111/144 843/112/144 834/170/144
f 833/169/145 842/114/145 841/115/145 832/108/145
f 831/173/321 840/117/321 839/118/321 830/177/321
f 829/176/147 838/121/147 837/182/147
f 836/183/148 844/111/148 835/179/148
f 834/170/149 843/112/149 842/114/149 833/169/149
f 832/108/150 841/115/150 840/117/150 831/173/150
f 830/177/151 839/118/151 838/121/151 829/176/151
usemtl Material
f 97/63/85 115/64/85 117/65/85 112/66/85
f 115/64/86 101/67/86 114/68/86 117/65/86
f 117/65/87 114/68/87 103/69/87 111/70/87
f 112/66/88 117/65/88 111/70/88 99/71/88
f 100/72/89 109/73/89 118/74/89 113/75/89
f 109/73/90 99/71/90 111/76/90 118/74/90
f 118/74/91 111/76/91 103/77/91 108/78/91
f 113/75/92 118/74/92 108/78/92 104/79/92
f 104/80/93 108/81/93 119/82/93 105/83/93
f 108/81/94 103/84/94 114/85/94 119/82/94
f 119/82/95 114/85/95 101/5/95 110/86/95
f 105/83/96 119/82/96 110/86/96 102/87/96
f 102/88/97 106/89/97 120/90/97 105/91/97
f 106/89/98 98/92/98 116/93/98 120/90/98
f 120/90/99 116/93/99 100/72/99 113/94/99
f 105/91/100 120/90/100 113/94/100 104/95/100
f 98/92/101 107/96/101 121/97/101 116/93/101
f 107/96/102 97/63/102 112/66/102 121/97/102
f 121/97/103 112/66/103 99/71/103 109/73/103
f 116/93/104 121/97/104 109/73/104 100/72/104
f 102/87/105 110/86/105 122/98/105 106/99/105
f 110/86/106 101/5/106 115/100/106 122/98/106
f 122/98/107 115/100/107 97/63/107 107/96/107
f 106/99/108 122/98/108 107/96/108 98/92/108
f 123/63/85 141/64/85 143/65/85 138/66/85
f 141/64/86 127/67/86 140/68/86 143/65/86
f 143/65/87 140/68/87 129/69/87 137/70/87
f 138/66/88 143/65/88 137/70/88 125/71/88
f 126/72/89 135/73/89 144/74/89 139/75/89
f 135/73/90 125/71/90 137/76/90 144/74/90
f 144/74/91 137/76/91 129/77/91 134/78/91
f 139/75/92 144/74/92 134/78/92 130/79/92
f 130/80/93 134/81/93 145/82/93 131/83/93
f 134/81/94 129/84/94 140/85/94 145/82/94
f 145/82/95 140/85/95 127/5/95 136/86/95
f 131/83/96 145/82/96 136/86/96 128/87/96
f 128/88/97 132/89/97 146/90/97 131/91/97
f 132/89/98 124/92/98 142/93/98 146/90/98
f 146/90/99 142/93/99 126/72/99 139/94/99
f 131/91/100 146/90/100 139/94/100 130/95/100
f 124/92/101 133/96/101 147/97/101 142/93/101
f 133/96/102 123/63/102 138/66/102 147/97/102
f 147/97/103 138/66/103 125/71/103 135/73/103
f 142/93/104 147/97/104 135/73/104 126/72/104
f 128/87/105 136/86/105 148/98/105 132/99/105
f 136/86/106 127/5/106 141/100/106 148/98/106
f 148/98/107 141/100/107 123/63/107 133/96/107
f 132/99/108 148/98/108 133/96/108 124/92/108
f 173/63/120 191/64/120 193/65/120 188/66/120
f 191/64/121 177/67/121 190/68/121 193/65/121
f 193/65/122 190/68/122 179/69/122 187/70/122
f 188/66/123 193/65/123 187/70/123 175/71/123
f 176/72/124 185/73/124 194/74/124 189/75/124
f 185/73/125 175/71/125 187/76/125 194/74/125
f 194/74/126 187/76/126 179/77/126 184/78/126
f 189/75/127 194/74/127 184/78/127 180/79/127
f 180/80/128 184/81/128 195/82/128 181/83/128
f 184/81/129 179/84/129 190/85/129 195/82/129
f 195/82/130 190/85/130 177/5/130 186/86/130
f 181/83/131 195/82/131 186/86/131 178/87/131
f 178/88/132 182/89/132 196/90/132 181/91/132
f 182/89/133 174/92/133 192/93/133 196/90/133
f 196/90/134 192/93/134 176/72/134 189/94/134
f 181/91/135 196/90/135 189/94/135 180/95/135
f 174/92/136 183/96/136 197/97/136 192/93/136
f 183/96/137 173/63/137 188/66/137 197/97/137
f 197/97/138 188/66/138 175/71/138 185/73/138
f 192/93/139 197/97/139 185/73/139 176/72/139
f 178/87/140 186/86/140 198/98/140 182/99/140
f 186/86/141 177/5/141 191/100/141 198/98/141
f 198/98/142 191/100/142 173/63/142 183/96/142
f 182/99/143 198/98/143 183/96/143 174/92/143
f 527/63/86 540/66/86 117/65/86 115/64/86
f 115/64/85 117/65/85 541/68/85 531/67/85
f 117/65/88 111/70/88 533/69/88 541/68/88
f 540/66/87 529/71/87 111/70/87 117/65/87
f 530/72/92 113/75/92 118/74/92 538/73/92
f 538/73/91 118/74/91 111/76/91 529/71/91
f 118/74/90 537/78/90 533/77/90 111/76/90
f 113/75/89 534/79/89 537/78/89 118/74/89
f 534/80/104 535/83/104 543/82/104 537/81/104
f 537/81/103 543/82/103 541/85/103 533/84/103
f 543/82/102 539/86/102 531/5/102 541/85/102
f 535/83/101 532/87/101 539/86/101 543/82/101
f 532/88/98 535/91/98 120/90/98 106/89/98
f 106/89/97 120/90/97 542/93/97 528/92/97
f 120/90/100 113/94/100 530/72/100 542/93/100
f 535/91/99 534/95/99 113/94/99 120/90/99
f 528/92/96 542/93/96 544/97/96 536/96/96
f 536/96/95 544/97/95 540/66/95 527/63/95
f 544/97/94 538/73/94 529/71/94 540/66/94
f 542/93/93 530/72/93 538/73/93 544/97/93
f 532/87/108 106/99/108 122/98/108 539/86/108
f 539/86/107 122/98/107 115/100/107 531/5/107
f 122/98/106 536/96/106 527/63/106 115/100/106
f 106/99/105 528/92/105 536/96/105 122/98/105
f 545/63/86 558/66/86 143/65/86 141/64/86
f 141/64/85 143/65/85 559/68/85 549/67/85
f 143/65/88 137/70/88 551/69/88 559/68/88
f 558/66/87 547/71/87 137/70/87 143/65/87
f 548/72/92 139/75/92 144/74/92 556/73/92
f 556/73/91 144/74/91 137/76/91 547/71/91
f 144/74/90 555/78/90 551/77/90 137/76/90
f 139/75/89 552/79/89 555/78/89 144/74/89
f 552/80/104 553/83/104 561/82/104 555/81/104
f 555/81/103 561/82/103 559/85/103 551/84/103
f 561/82/102 557/86/102 549/5/102 559/85/102
f 553/83/101 550/87/101 557/86/101 561/82/101
f 550/88/98 553/91/98 146/90/98 132/89/98
f 132/89/97 146/90/97 560/93/97 546/92/97
f 146/90/100 139/94/100 548/72/100 560/93/100
f 553/91/99 552/95/99 139/94/99 146/90/99
f 546/92/96 560/93/96 562/97/96 554/96/96
f 554/96/95 562/97/95 558/66/95 545/63/95
f 562/97/94 556/73/94 547/71/94 558/66/94
f 560/93/93 548/72/93 556/73/93 562/97/93
f 550/87/108 132/99/108 148/98/108 557/86/108
f 557/86/107 148/98/107 141/100/107 549/5/107
f 148/98/106 554/96/106 545/63/106 141/100/106
f 132/99/105 546/92/105 554/96/105 148/98/105
f 587/63/121 602/66/121 607/65/121 605/64/121
f 605/64/120 607/65/120 604/68/120 591/67/120
f 607/65/123 601/70/123 593/69/123 604/68/123
f 602/66/122 589/71/122 601/70/122 607/65/122
f 590/72/127 603/75/127 608/74/127 599/73/127
f 599/73/126 608/74/126 601/76/126 589/71/126
f 608/74/125 598/78/125 593/77/125 601/76/125
f 603/75/124 594/79/124 598/78/124 608/74/124
f 594/80/139 595/83/139 609/82/139 598/81/139
f 598/81/138 609/82/138 604/85/138 593/84/138
f 609/82/137 600/86/137 591/5/137 604/85/137
f 595/83/136 592/87/136 600/86/136 609/82/136
f 592/88/133 595/91/133 610/90/133 596/89/133
f 596/89/132 610/90/132 606/93/132 588/92/132
f 610/90/135 603/94/135 590/72/135 606/93/135
f 595/91/134 594/95/134 603/94/134 610/90/134
f 588/92/131 606/93/131 611/97/131 597/96/131
f 597/96/130 611/97/130 602/66/130 587/63/130
f 611/97/129 599/73/129 589/71/129 602/66/129
f 606/93/128 590/72/128 599/73/128 611/97/128
f 592/87/143 596/99/143 612/98/143 600/86/143
f 600/86/142 612/98/142 605/100/142 591/5/142
f 612/98/141 597/96/141 587/63/141 605/100/141
f 596/99/140 588/92/140 597/96/140 612/98/140
o 
v 0.000000 0.000000 0.000000
